<?xml version="1.0" encoding="utf-8"?>
<!-- Generator: Adobe Illustrator 28.2.0, SVG Export Plug-In . SVG Version: 6.00 Build 0)  -->
<svg version="1.1" id="Layer_1" xmlns="http://www.w3.org/2000/svg" xmlns:xlink="http://www.w3.org/1999/xlink" x="0px" y="0px"
	 viewBox="0 0 828 576" style="enable-background:new 0 0 828 576;" xml:space="preserve">
<style type="text/css">
	.st0{fill:#FFFFFF;}
	.st1{clip-path:url(#SVGID_00000054963298924246491510000012352817045319958961_);}
	.st2{fill:#FFFFFF;stroke:#FFFFFF;stroke-width:1.07;stroke-linecap:round;stroke-linejoin:round;stroke-miterlimit:10;}
	.st3{clip-path:url(#SVGID_00000011019392132915548580000001525362540827827369_);}
	.st4{fill:#EBEBEB;}
	.st5{fill:none;stroke:#FFFFFF;stroke-width:0.53;stroke-linejoin:round;stroke-miterlimit:10;}
	.st6{fill:none;stroke:#FFFFFF;stroke-width:1.07;stroke-linejoin:round;stroke-miterlimit:10;}
	.st7{fill:#414042;}
	.st8{fill:#BCBEC0;}
	.st9{fill:#FFFFFF;stroke:#000000;stroke-width:0.53;stroke-linecap:round;stroke-linejoin:round;stroke-miterlimit:10;}
	.st10{font-family:'ArialMT';}
	.st11{font-size:8px;}
	.st12{clip-path:url(#SVGID_00000114059539929990351370000002401489355555334552_);}
	.st13{fill:none;}
	.st14{enable-background:new    ;}
	.st15{fill:#4D4D4D;}
	.st16{font-size:8.8px;}
	.st17{letter-spacing:1;}
	.st18{letter-spacing:3;}
	.st19{fill:none;stroke:#333333;stroke-width:1.07;stroke-linejoin:round;stroke-miterlimit:10;}
	.st20{font-size:13.2px;}
	.st21{font-family:'PermanentMarkerPro';}
	.st22{font-size:36px;}
	.st23{fill:none;stroke:#000000;stroke-width:1.8005;stroke-miterlimit:10;}
	.st24{fill:none;stroke:#000000;stroke-width:1.9727;stroke-miterlimit:10;}
	.st25{fill:none;stroke:#000000;stroke-width:1.4786;stroke-miterlimit:10;}
</style>
<rect x="54" y="85.5" class="st0" width="720" height="405"/>
<g>
	<defs>
		<rect id="SVGID_1_" x="54" y="85.5" width="720" height="405"/>
	</defs>
	<clipPath id="SVGID_00000088100585504750979130000010671285068234802055_">
		<use xlink:href="#SVGID_1_"  style="overflow:visible;"/>
	</clipPath>
	<g style="clip-path:url(#SVGID_00000088100585504750979130000010671285068234802055_);">
		<rect x="54" y="85.5" class="st2" width="720" height="405"/>
	</g>
</g>
<g>
	<defs>
		<rect id="SVGID_00000129181067085537753420000018154651220800826044_" x="142" y="108.7" width="626.5" height="363.3"/>
	</defs>
	<clipPath id="SVGID_00000148619907689512426520000003402659911928380311_">
		<use xlink:href="#SVGID_00000129181067085537753420000018154651220800826044_"  style="overflow:visible;"/>
	</clipPath>
	<g style="clip-path:url(#SVGID_00000148619907689512426520000003402659911928380311_);">
		<rect x="142" y="108.7" class="st4" width="626.5" height="363.3"/>
		<line class="st5" x1="241.7" y1="471.9" x2="241.7" y2="108.7"/>
		<line class="st5" x1="384.1" y1="471.9" x2="384.1" y2="108.7"/>
		<line class="st5" x1="526.5" y1="471.9" x2="526.5" y2="108.7"/>
		<line class="st5" x1="668.8" y1="471.9" x2="668.8" y2="108.7"/>
		<line class="st6" x1="142" y1="464.5" x2="768.5" y2="464.5"/>
		<line class="st6" x1="142" y1="452" x2="768.5" y2="452"/>
		<line class="st6" x1="142" y1="439.6" x2="768.5" y2="439.6"/>
		<line class="st6" x1="142" y1="427.1" x2="768.5" y2="427.1"/>
		<line class="st6" x1="142" y1="414.7" x2="768.5" y2="414.7"/>
		<line class="st6" x1="142" y1="402.3" x2="768.5" y2="402.3"/>
		<line class="st6" x1="142" y1="389.8" x2="768.5" y2="389.8"/>
		<line class="st6" x1="142" y1="377.4" x2="768.5" y2="377.4"/>
		<line class="st6" x1="142" y1="365" x2="768.5" y2="365"/>
		<line class="st6" x1="142" y1="352.5" x2="768.5" y2="352.5"/>
		<line class="st6" x1="142" y1="340.1" x2="768.5" y2="340.1"/>
		<line class="st6" x1="142" y1="327.6" x2="768.5" y2="327.6"/>
		<line class="st6" x1="142" y1="315.2" x2="768.5" y2="315.2"/>
		<line class="st6" x1="142" y1="302.8" x2="768.5" y2="302.8"/>
		<line class="st6" x1="142" y1="290.3" x2="768.5" y2="290.3"/>
		<line class="st6" x1="142" y1="277.9" x2="768.5" y2="277.9"/>
		<line class="st6" x1="142" y1="265.4" x2="768.5" y2="265.4"/>
		<line class="st6" x1="142" y1="253" x2="768.5" y2="253"/>
		<line class="st6" x1="142" y1="240.6" x2="768.5" y2="240.6"/>
		<line class="st6" x1="142" y1="228.1" x2="768.5" y2="228.1"/>
		<line class="st6" x1="142" y1="215.7" x2="768.5" y2="215.7"/>
		<line class="st6" x1="142" y1="203.2" x2="768.5" y2="203.2"/>
		<line class="st6" x1="142" y1="190.8" x2="768.5" y2="190.8"/>
		<line class="st6" x1="142" y1="178.3" x2="768.5" y2="178.3"/>
		<line class="st6" x1="142" y1="165.9" x2="768.5" y2="165.9"/>
		<line class="st6" x1="142" y1="153.5" x2="768.5" y2="153.5"/>
		<line class="st6" x1="142" y1="141" x2="768.5" y2="141"/>
		<line class="st6" x1="142" y1="128.6" x2="768.5" y2="128.6"/>
		<line class="st6" x1="142" y1="116.1" x2="768.5" y2="116.1"/>
		<line class="st6" x1="170.5" y1="471.9" x2="170.5" y2="108.7"/>
		<line class="st6" x1="312.9" y1="471.9" x2="312.9" y2="108.7"/>
		<line class="st6" x1="455.3" y1="471.9" x2="455.3" y2="108.7"/>
		<line class="st6" x1="597.7" y1="471.9" x2="597.7" y2="108.7"/>
		<line class="st6" x1="740" y1="471.9" x2="740" y2="108.7"/>
		<rect x="170.5" y="458.9" class="st7" width="5.7" height="11.2"/>
		<rect x="176.2" y="458.9" class="st8" width="563.9" height="11.2"/>
		<rect x="170.5" y="446.4" class="st7" width="34.2" height="11.2"/>
		<rect x="204.7" y="446.4" class="st8" width="535.4" height="11.2"/>
		<rect x="170.5" y="434" class="st7" width="68.3" height="11.2"/>
		<rect x="238.8" y="434" class="st8" width="501.2" height="11.2"/>
		<rect x="170.5" y="421.5" class="st7" width="79.7" height="11.2"/>
		<rect x="250.2" y="421.5" class="st8" width="489.8" height="11.2"/>
		<rect x="170.5" y="409.1" class="st7" width="113.9" height="11.2"/>
		<rect x="284.4" y="409.1" class="st8" width="455.6" height="11.2"/>
		<rect x="170.5" y="396.7" class="st7" width="153.8" height="11.2"/>
		<rect x="324.3" y="396.7" class="st8" width="415.8" height="11.2"/>
		<rect x="170.5" y="384.2" class="st7" width="159.5" height="11.2"/>
		<rect x="330" y="384.2" class="st8" width="410.1" height="11.2"/>
		<rect x="170.5" y="371.8" class="st7" width="165.2" height="11.2"/>
		<rect x="335.7" y="371.8" class="st8" width="404.4" height="11.2"/>
		<rect x="170.5" y="359.4" class="st7" width="188" height="11.2"/>
		<rect x="358.4" y="359.4" class="st8" width="381.6" height="11.2"/>
		<rect x="170.5" y="346.9" class="st7" width="193.6" height="11.2"/>
		<rect x="364.1" y="346.9" class="st8" width="375.9" height="11.2"/>
		<rect x="170.5" y="334.5" class="st7" width="216.4" height="11.2"/>
		<rect x="386.9" y="334.5" class="st8" width="353.1" height="11.2"/>
		<rect x="170.5" y="322" class="st7" width="216.4" height="11.2"/>
		<rect x="386.9" y="322" class="st8" width="353.1" height="11.2"/>
		<rect x="170.5" y="309.6" class="st7" width="227.8" height="11.2"/>
		<rect x="398.3" y="309.6" class="st8" width="341.7" height="11.2"/>
		<rect x="170.5" y="297.1" class="st7" width="227.8" height="11.2"/>
		<rect x="398.3" y="297.1" class="st8" width="341.7" height="11.2"/>
		<rect x="170.5" y="284.7" class="st7" width="256.3" height="11.2"/>
		<rect x="426.8" y="284.7" class="st8" width="313.3" height="11.2"/>
		<rect x="170.5" y="272.3" class="st7" width="256.3" height="11.2"/>
		<rect x="426.8" y="272.3" class="st8" width="313.3" height="11.2"/>
		<rect x="170.5" y="259.8" class="st7" width="267.7" height="11.2"/>
		<rect x="438.2" y="259.8" class="st8" width="301.9" height="11.2"/>
		<rect x="170.5" y="247.4" class="st7" width="279.1" height="11.2"/>
		<rect x="449.6" y="247.4" class="st8" width="290.5" height="11.2"/>
		<rect x="170.5" y="234.9" class="st7" width="313.2" height="11.2"/>
		<rect x="483.7" y="234.9" class="st8" width="256.3" height="11.2"/>
		<rect x="170.5" y="222.5" class="st7" width="358.8" height="11.2"/>
		<rect x="529.3" y="222.5" class="st8" width="210.7" height="11.2"/>
		<rect x="170.5" y="210.1" class="st7" width="375.9" height="11.2"/>
		<rect x="546.4" y="210.1" class="st8" width="193.7" height="11.2"/>
		<rect x="170.5" y="197.6" class="st7" width="375.9" height="11.2"/>
		<rect x="546.4" y="197.6" class="st8" width="193.7" height="11.2"/>
		<rect x="170.5" y="185.2" class="st7" width="381.6" height="11.2"/>
		<rect x="552.1" y="185.2" class="st8" width="187.9" height="11.2"/>
		<rect x="170.5" y="172.8" class="st7" width="393" height="11.2"/>
		<rect x="563.5" y="172.8" class="st8" width="176.6" height="11.2"/>
		<rect x="170.5" y="160.3" class="st7" width="421.5" height="11.2"/>
		<rect x="592" y="160.3" class="st8" width="148.1" height="11.2"/>
		<rect x="170.5" y="147.9" class="st7" width="461.3" height="11.2"/>
		<rect x="631.8" y="147.9" class="st8" width="108.2" height="11.2"/>
		<rect x="170.5" y="135.4" class="st7" width="472.7" height="11.2"/>
		<rect x="643.2" y="135.4" class="st8" width="96.8" height="11.2"/>
		<rect x="170.5" y="123" class="st7" width="484.1" height="11.2"/>
		<rect x="654.6" y="123" class="st8" width="85.4" height="11.2"/>
		<rect x="170.5" y="110.5" class="st7" width="307.6" height="11.2"/>
		<rect x="478" y="110.5" class="st8" width="262" height="11.2"/>
		<polygon class="st9" points="166.1,470.9 180.6,470.9 180.5,470.9 180.8,470.9 181.1,470.9 181.5,470.7 181.8,470.5 182.1,470.3 
			182.3,470.1 182.5,469.8 182.6,469.5 182.7,469.1 182.7,468.8 182.7,468.8 182.7,460.2 182.7,460.2 182.7,459.8 182.6,459.5 
			182.5,459.2 182.3,458.9 182.1,458.6 181.8,458.4 181.5,458.2 181.1,458.1 180.8,458 180.6,458 166.1,458 166.4,458 166,458 
			165.7,458.1 165.4,458.2 165.1,458.3 164.8,458.5 164.5,458.7 164.3,459 164.1,459.3 164,459.7 164,460 164,460.2 164,468.8 
			164,468.6 164,469 164,469.3 164.1,469.6 164.3,469.9 164.5,470.2 164.8,470.5 165.1,470.6 165.4,470.8 165.7,470.9 166,470.9 		
			"/>
		<text transform="matrix(1 0 0 1 167.5587 467.33)" class="st10 st11">1%</text>
		<polygon class="st9" points="448.7,470.9 467.5,470.9 467.5,470.9 467.8,470.9 468.1,470.9 468.5,470.7 468.8,470.5 469,470.3 
			469.3,470.1 469.5,469.8 469.6,469.5 469.7,469.1 469.7,468.8 469.7,468.8 469.7,460.2 469.7,460.2 469.7,459.8 469.6,459.5 
			469.5,459.2 469.3,458.9 469,458.6 468.8,458.4 468.5,458.2 468.1,458.1 467.8,458 467.5,458 448.7,458 448.9,458 448.6,458 
			448.2,458.1 447.9,458.2 447.6,458.3 447.3,458.5 447.1,458.7 446.9,459 446.7,459.3 446.6,459.7 446.5,460 446.5,460.2 
			446.5,468.8 446.5,468.6 446.5,469 446.6,469.3 446.7,469.6 446.9,469.9 447.1,470.2 447.3,470.5 447.6,470.6 447.9,470.8 
			448.2,470.9 448.6,470.9 		"/>
		<text transform="matrix(1 0 0 1 450.1041 467.33)" class="st10 st11">99%</text>
		<polygon class="st9" points="180.4,458.5 194.8,458.5 194.7,458.5 195.1,458.5 195.4,458.4 195.7,458.3 196,458.1 196.3,457.9 
			196.5,457.6 196.7,457.3 196.8,457 196.9,456.7 196.9,456.3 196.9,456.3 196.9,447.7 196.9,447.7 196.9,447.4 196.8,447 
			196.7,446.7 196.5,446.4 196.3,446.2 196,446 195.7,445.8 195.4,445.7 195.1,445.6 194.8,445.6 180.4,445.6 180.6,445.6 
			180.3,445.6 179.9,445.6 179.6,445.7 179.3,445.9 179,446.1 178.8,446.3 178.5,446.6 178.4,446.9 178.3,447.2 178.2,447.6 
			178.2,447.7 178.2,456.3 178.2,456.2 178.2,456.5 178.3,456.9 178.4,457.2 178.5,457.5 178.8,457.8 179,458 179.3,458.2 
			179.6,458.4 179.9,458.5 180.3,458.5 		"/>
		<text transform="matrix(1 0 0 1 181.7988 454.89)" class="st10 st11">6%</text>
		<polygon class="st9" points="462.9,458.5 481.8,458.5 481.7,458.5 482,458.5 482.4,458.4 482.7,458.3 483,458.1 483.3,457.9 
			483.5,457.6 483.7,457.3 483.8,457 483.9,456.7 484,456.3 484,456.3 484,447.7 484,447.7 483.9,447.4 483.8,447 483.7,446.7 
			483.5,446.4 483.3,446.2 483,446 482.7,445.8 482.4,445.7 482,445.6 481.8,445.6 462.9,445.6 463.2,445.6 462.8,445.6 
			462.5,445.6 462.2,445.7 461.8,445.9 461.6,446.1 461.3,446.3 461.1,446.6 460.9,446.9 460.8,447.2 460.8,447.6 460.8,447.7 
			460.8,456.3 460.8,456.2 460.8,456.5 460.8,456.9 460.9,457.2 461.1,457.5 461.3,457.8 461.6,458 461.8,458.2 462.2,458.4 
			462.5,458.5 462.8,458.5 		"/>
		<text transform="matrix(1 0 0 1 464.3441 454.89)" class="st10 st11">94%</text>
		<polygon class="st9" points="195.2,446 214.1,446 214,446 214.4,446 214.7,446 215,445.8 215.3,445.7 215.6,445.5 215.8,445.2 
			216,444.9 216.1,444.6 216.2,444.2 216.3,443.9 216.3,443.9 216.3,435.3 216.3,435.3 216.2,435 216.1,434.6 216,434.3 215.8,434 
			215.6,433.7 215.3,433.5 215,433.3 214.7,433.2 214.4,433.1 214.1,433.1 195.2,433.1 195.5,433.1 195.1,433.1 194.8,433.2 
			194.5,433.3 194.1,433.4 193.9,433.6 193.6,433.9 193.4,434.1 193.2,434.5 193.1,434.8 193.1,435.1 193.1,435.3 193.1,443.9 
			193.1,443.7 193.1,444.1 193.1,444.4 193.2,444.7 193.4,445 193.6,445.3 193.9,445.6 194.1,445.8 194.5,445.9 194.8,446 
			195.1,446 		"/>
		<text transform="matrix(1 0 0 1 196.6541 442.45)" class="st10 st11">12%</text>
		<polygon class="st9" points="480,446 498.9,446 498.8,446 499.1,446 499.5,446 499.8,445.8 500.1,445.7 500.4,445.5 500.6,445.2 
			500.8,444.9 500.9,444.6 501,444.2 501,443.9 501,443.9 501,435.3 501,435.3 501,435 500.9,434.6 500.8,434.3 500.6,434 
			500.4,433.7 500.1,433.5 499.8,433.3 499.5,433.2 499.1,433.1 498.9,433.1 480,433.1 480.3,433.1 479.9,433.1 479.6,433.2 
			479.2,433.3 478.9,433.4 478.6,433.6 478.4,433.9 478.2,434.1 478,434.5 477.9,434.8 477.9,435.1 477.9,435.3 477.9,443.9 
			477.9,443.7 477.9,444.1 477.9,444.4 478,444.7 478.2,445 478.4,445.3 478.6,445.6 478.9,445.8 479.2,445.9 479.6,446 479.9,446 
					"/>
		<text transform="matrix(1 0 0 1 481.4341 442.45)" class="st10 st11">88%</text>
		<polygon class="st9" points="200.9,433.6 219.8,433.6 219.7,433.6 220.1,433.6 220.4,433.5 220.7,433.4 221,433.2 221.3,433 
			221.5,432.8 221.7,432.5 221.8,432.1 221.9,431.8 221.9,431.5 221.9,431.5 221.9,422.9 221.9,422.9 221.9,422.5 221.8,422.2 
			221.7,421.9 221.5,421.6 221.3,421.3 221,421.1 220.7,420.9 220.4,420.8 220.1,420.7 219.8,420.7 200.9,420.7 201.2,420.7 
			200.8,420.7 200.5,420.7 200.2,420.8 199.9,421 199.6,421.2 199.3,421.4 199.1,421.7 198.9,422 198.8,422.3 198.8,422.7 
			198.8,422.9 198.8,431.5 198.8,431.3 198.8,431.6 198.8,432 198.9,432.3 199.1,432.6 199.3,432.9 199.6,433.1 199.9,433.3 
			200.2,433.5 200.5,433.6 200.8,433.6 		"/>
		<text transform="matrix(1 0 0 1 202.3541 430.01)" class="st10 st11">14%</text>
		<polygon class="st9" points="485.7,433.6 504.6,433.6 504.5,433.6 504.8,433.6 505.2,433.5 505.5,433.4 505.8,433.2 506.1,433 
			506.3,432.8 506.5,432.5 506.6,432.1 506.7,431.8 506.7,431.5 506.7,431.5 506.7,422.9 506.7,422.9 506.7,422.5 506.6,422.2 
			506.5,421.9 506.3,421.6 506.1,421.3 505.8,421.1 505.5,420.9 505.2,420.8 504.8,420.7 504.6,420.7 485.7,420.7 486,420.7 
			485.6,420.7 485.3,420.7 484.9,420.8 484.6,421 484.3,421.2 484.1,421.4 483.9,421.7 483.7,422 483.6,422.3 483.5,422.7 
			483.5,422.9 483.5,431.5 483.5,431.3 483.5,431.6 483.6,432 483.7,432.3 483.9,432.6 484.1,432.9 484.3,433.1 484.6,433.3 
			484.9,433.5 485.3,433.6 485.6,433.6 		"/>
		<text transform="matrix(1 0 0 1 487.1342 430.01)" class="st10 st11">86%</text>
		<polygon class="st9" points="218,421.2 236.9,421.2 236.8,421.2 237.1,421.2 237.5,421.1 237.8,421 238.1,420.8 238.4,420.6 
			238.6,420.3 238.8,420 238.9,419.7 239,419.4 239,419 239,419 239,410.4 239,410.4 239,410.1 238.9,409.7 238.8,409.4 
			238.6,409.1 238.4,408.9 238.1,408.6 237.8,408.5 237.5,408.3 237.1,408.3 236.9,408.2 218,408.2 218.3,408.3 217.9,408.3 
			217.6,408.3 217.2,408.4 216.9,408.5 216.6,408.7 216.4,409 216.2,409.3 216,409.6 215.9,409.9 215.9,410.2 215.9,410.4 
			215.9,419 215.9,418.8 215.9,419.2 215.9,419.5 216,419.9 216.2,420.2 216.4,420.4 216.6,420.7 216.9,420.9 217.2,421 
			217.6,421.1 217.9,421.2 		"/>
		<text transform="matrix(1 0 0 1 219.4441 417.57)" class="st10 st11">20%</text>
		<polygon class="st9" points="502.8,421.2 521.7,421.2 521.6,421.2 521.9,421.2 522.2,421.1 522.6,421 522.9,420.8 523.2,420.6 
			523.4,420.3 523.6,420 523.7,419.7 523.8,419.4 523.8,419 523.8,419 523.8,410.4 523.8,410.4 523.8,410.1 523.7,409.7 
			523.6,409.4 523.4,409.1 523.2,408.9 522.9,408.6 522.6,408.5 522.2,408.3 521.9,408.3 521.7,408.2 502.8,408.2 503,408.3 
			502.7,408.3 502.4,408.3 502,408.4 501.7,408.5 501.4,408.7 501.2,409 501,409.3 500.8,409.6 500.7,409.9 500.6,410.2 
			500.6,410.4 500.6,419 500.6,418.8 500.6,419.2 500.7,419.5 500.8,419.9 501,420.2 501.2,420.4 501.4,420.7 501.7,420.9 502,421 
			502.4,421.1 502.7,421.2 		"/>
		<text transform="matrix(1 0 0 1 504.2141 417.57)" class="st10 st11">80%</text>
		<polygon class="st9" points="237.9,408.7 256.8,408.7 256.7,408.7 257.1,408.7 257.4,408.6 257.7,408.5 258,408.4 258.3,408.1 
			258.5,407.9 258.7,407.6 258.9,407.2 258.9,406.9 259,406.6 259,406.6 259,398 259,398 258.9,397.6 258.9,397.3 258.7,397 
			258.5,396.7 258.3,396.4 258,396.2 257.7,396 257.4,395.9 257.1,395.8 256.8,395.8 237.9,395.8 238.2,395.8 237.9,395.8 
			237.5,395.9 237.2,396 236.9,396.1 236.6,396.3 236.3,396.5 236.1,396.8 236,397.1 235.9,397.5 235.8,397.8 235.8,398 
			235.8,406.6 235.8,406.4 235.8,406.7 235.9,407.1 236,407.4 236.1,407.7 236.3,408 236.6,408.2 236.9,408.4 237.2,408.6 
			237.5,408.7 237.9,408.7 		"/>
		<text transform="matrix(1 0 0 1 239.3741 405.13)" class="st10 st11">27%</text>
		<polygon class="st9" points="522.7,408.7 541.6,408.7 541.5,408.7 541.8,408.7 542.2,408.6 542.5,408.5 542.8,408.4 543.1,408.1 
			543.3,407.9 543.5,407.6 543.6,407.2 543.7,406.9 543.8,406.6 543.8,406.6 543.8,398 543.8,398 543.7,397.6 543.6,397.3 
			543.5,397 543.3,396.7 543.1,396.4 542.8,396.2 542.5,396 542.2,395.9 541.8,395.8 541.6,395.8 522.7,395.8 523,395.8 
			522.6,395.8 522.3,395.9 522,396 521.6,396.1 521.4,396.3 521.1,396.5 520.9,396.8 520.7,397.1 520.6,397.5 520.6,397.8 
			520.6,398 520.6,406.6 520.6,406.4 520.6,406.7 520.6,407.1 520.7,407.4 520.9,407.7 521.1,408 521.4,408.2 521.6,408.4 
			522,408.6 522.3,408.7 522.6,408.7 		"/>
		<text transform="matrix(1 0 0 1 524.1542 405.13)" class="st10 st11">73%</text>
		<polygon class="st9" points="240.8,396.3 259.7,396.3 259.6,396.3 259.9,396.3 260.3,396.2 260.6,396.1 260.9,395.9 261.2,395.7 
			261.4,395.4 261.6,395.1 261.7,394.8 261.8,394.5 261.8,394.1 261.8,394.1 261.8,385.5 261.8,385.5 261.8,385.2 261.7,384.9 
			261.6,384.5 261.4,384.2 261.2,384 260.9,383.8 260.6,383.6 260.3,383.5 259.9,383.4 259.7,383.4 240.8,383.4 241.1,383.4 
			240.7,383.4 240.4,383.4 240,383.5 239.7,383.7 239.4,383.9 239.2,384.1 239,384.4 238.8,384.7 238.7,385 238.6,385.4 
			238.6,385.5 238.6,394.1 238.6,394 238.6,394.3 238.7,394.6 238.8,395 239,395.3 239.2,395.6 239.4,395.8 239.7,396 240,396.1 
			240.4,396.2 240.7,396.3 		"/>
		<text transform="matrix(1 0 0 1 242.2241 392.69)" class="st10 st11">28%</text>
		<polygon class="st9" points="525.6,396.3 544.4,396.3 544.3,396.3 544.7,396.3 545,396.2 545.4,396.1 545.7,395.9 545.9,395.7 
			546.2,395.4 546.3,395.1 546.5,394.8 546.6,394.5 546.6,394.1 546.6,394.1 546.6,385.5 546.6,385.5 546.6,385.2 546.5,384.9 
			546.3,384.5 546.2,384.2 545.9,384 545.7,383.8 545.4,383.6 545,383.5 544.7,383.4 544.4,383.4 525.6,383.4 525.8,383.4 
			525.5,383.4 525.1,383.4 524.8,383.5 524.5,383.7 524.2,383.9 524,384.1 523.8,384.4 523.6,384.7 523.5,385 523.4,385.4 
			523.4,385.5 523.4,394.1 523.4,394 523.4,394.3 523.5,394.6 523.6,395 523.8,395.3 524,395.6 524.2,395.8 524.5,396 524.8,396.1 
			525.1,396.2 525.5,396.3 		"/>
		<text transform="matrix(1 0 0 1 526.9941 392.69)" class="st10 st11">72%</text>
		<polygon class="st9" points="243.6,383.9 262.5,383.9 262.4,383.9 262.8,383.8 263.1,383.8 263.4,383.6 263.7,383.5 264,383.2 
			264.2,383 264.4,382.7 264.6,382.4 264.6,382 264.7,381.7 264.7,381.7 264.7,373.1 264.7,373.1 264.6,372.8 264.6,372.4 
			264.4,372.1 264.2,371.8 264,371.5 263.7,371.3 263.4,371.1 263.1,371 262.8,371 262.5,370.9 243.6,370.9 243.9,371 243.6,370.9 
			243.2,371 242.9,371.1 242.6,371.2 242.3,371.4 242,371.7 241.8,371.9 241.7,372.2 241.6,372.6 241.5,372.9 241.5,373.1 
			241.5,381.7 241.5,381.5 241.5,381.9 241.6,382.2 241.7,382.5 241.8,382.8 242,383.1 242.3,383.4 242.6,383.6 242.9,383.7 
			243.2,383.8 243.6,383.9 		"/>
		<text transform="matrix(1 0 0 1 245.0741 380.25)" class="st10 st11">29%</text>
		<polygon class="st9" points="528.4,383.9 547.3,383.9 547.2,383.9 547.5,383.8 547.9,383.8 548.2,383.6 548.5,383.5 548.8,383.2 
			549,383 549.2,382.7 549.3,382.4 549.4,382 549.4,381.7 549.4,381.7 549.4,373.1 549.4,373.1 549.4,372.8 549.3,372.4 
			549.2,372.1 549,371.8 548.8,371.5 548.5,371.3 548.2,371.1 547.9,371 547.5,371 547.3,370.9 528.4,370.9 528.7,371 528.3,370.9 
			528,371 527.7,371.1 527.3,371.2 527,371.4 526.8,371.7 526.6,371.9 526.4,372.2 526.3,372.6 526.3,372.9 526.3,373.1 
			526.3,381.7 526.3,381.5 526.3,381.9 526.3,382.2 526.4,382.5 526.6,382.8 526.8,383.1 527,383.4 527.3,383.6 527.7,383.7 
			528,383.8 528.3,383.9 		"/>
		<text transform="matrix(1 0 0 1 529.8441 380.25)" class="st10 st11">71%</text>
		<polygon class="st9" points="255,371.4 273.9,371.4 273.8,371.4 274.2,371.4 274.5,371.3 274.8,371.2 275.1,371 275.4,370.8 
			275.6,370.5 275.8,370.2 276,369.9 276,369.6 276.1,369.2 276.1,369.2 276.1,360.6 276.1,360.6 276,360.3 276,360 275.8,359.6 
			275.6,359.4 275.4,359.1 275.1,358.9 274.8,358.7 274.5,358.6 274.2,358.5 273.9,358.5 255,358.5 255.3,358.5 254.9,358.5 
			254.6,358.5 254.3,358.6 253.9,358.8 253.7,359 253.4,359.2 253.2,359.5 253.1,359.8 252.9,360.1 252.9,360.5 252.9,360.6 
			252.9,369.2 252.9,369.1 252.9,369.4 252.9,369.8 253.1,370.1 253.2,370.4 253.4,370.7 253.7,370.9 253.9,371.1 254.3,371.3 
			254.6,371.4 254.9,371.4 		"/>
		<text transform="matrix(1 0 0 1 256.4641 367.81)" class="st10 st11">33%</text>
		<polygon class="st9" points="539.8,371.4 558.7,371.4 558.6,371.4 558.9,371.4 559.3,371.3 559.6,371.2 559.9,371 560.2,370.8 
			560.4,370.5 560.6,370.2 560.7,369.9 560.8,369.6 560.8,369.2 560.8,369.2 560.8,360.6 560.8,360.6 560.8,360.3 560.7,360 
			560.6,359.6 560.4,359.4 560.2,359.1 559.9,358.9 559.6,358.7 559.3,358.6 558.9,358.5 558.7,358.5 539.8,358.5 540.1,358.5 
			539.7,358.5 539.4,358.5 539,358.6 538.7,358.8 538.4,359 538.2,359.2 538,359.5 537.8,359.8 537.7,360.1 537.7,360.5 
			537.7,360.6 537.7,369.2 537.7,369.1 537.7,369.4 537.7,369.8 537.8,370.1 538,370.4 538.2,370.7 538.4,370.9 538.7,371.1 
			539,371.3 539.4,371.4 539.7,371.4 		"/>
		<text transform="matrix(1 0 0 1 541.2341 367.81)" class="st10 st11">67%</text>
		<polygon class="st9" points="257.9,359 276.8,359 276.7,359 277,359 277.4,358.9 277.7,358.8 278,358.6 278.2,358.4 278.5,358.1 
			278.7,357.8 278.8,357.5 278.9,357.2 278.9,356.8 278.9,356.8 278.9,348.2 278.9,348.2 278.9,347.9 278.8,347.5 278.7,347.2 
			278.5,346.9 278.2,346.6 278,346.4 277.7,346.3 277.4,346.1 277,346.1 276.8,346 257.9,346 258.1,346.1 257.8,346 257.5,346.1 
			257.1,346.2 256.8,346.3 256.5,346.5 256.3,346.8 256.1,347.1 255.9,347.4 255.8,347.7 255.7,348 255.7,348.2 255.7,356.8 
			255.7,356.6 255.7,357 255.8,357.3 255.9,357.7 256.1,358 256.3,358.2 256.5,358.5 256.8,358.7 257.1,358.8 257.5,358.9 
			257.8,359 		"/>
		<text transform="matrix(1 0 0 1 259.3041 355.37)" class="st10 st11">34%</text>
		<polygon class="st9" points="542.7,359 561.5,359 561.4,359 561.8,359 562.1,358.9 562.5,358.8 562.8,358.6 563,358.4 
			563.2,358.1 563.4,357.8 563.6,357.5 563.7,357.2 563.7,356.8 563.7,356.8 563.7,348.2 563.7,348.2 563.7,347.9 563.6,347.5 
			563.4,347.2 563.2,346.9 563,346.6 562.8,346.4 562.5,346.3 562.1,346.1 561.8,346.1 561.5,346 542.7,346 542.9,346.1 542.6,346 
			542.2,346.1 541.9,346.2 541.6,346.3 541.3,346.5 541,346.8 540.8,347.1 540.7,347.4 540.6,347.7 540.5,348 540.5,348.2 
			540.5,356.8 540.5,356.6 540.5,357 540.6,357.3 540.7,357.7 540.8,358 541,358.2 541.3,358.5 541.6,358.7 541.9,358.8 
			542.2,358.9 542.6,359 		"/>
		<text transform="matrix(1 0 0 1 544.0841 355.37)" class="st10 st11">66%</text>
		<polygon class="st9" points="269.3,346.5 288.1,346.5 288,346.5 288.4,346.5 288.7,346.4 289.1,346.3 289.4,346.1 289.6,345.9 
			289.9,345.7 290,345.4 290.2,345 290.3,344.7 290.3,344.4 290.3,344.4 290.3,335.8 290.3,335.8 290.3,335.4 290.2,335.1 
			290,334.8 289.9,334.5 289.6,334.2 289.4,334 289.1,333.8 288.7,333.7 288.4,333.6 288.1,333.6 269.3,333.6 269.5,333.6 
			269.2,333.6 268.8,333.7 268.5,333.8 268.2,333.9 267.9,334.1 267.7,334.3 267.5,334.6 267.3,334.9 267.2,335.2 267.1,335.6 
			267.1,335.8 267.1,344.4 267.1,344.2 267.1,344.5 267.2,344.9 267.3,345.2 267.5,345.5 267.7,345.8 267.9,346 268.2,346.2 
			268.5,346.4 268.8,346.5 269.2,346.5 		"/>
		<text transform="matrix(1 0 0 1 270.7042 342.93)" class="st10 st11">38%</text>
		<polygon class="st9" points="554,346.5 572.9,346.5 572.8,346.5 573.2,346.5 573.5,346.4 573.8,346.3 574.1,346.1 574.4,345.9 
			574.6,345.7 574.8,345.4 575,345 575,344.7 575.1,344.4 575.1,344.4 575.1,335.8 575.1,335.8 575,335.4 575,335.1 574.8,334.8 
			574.6,334.5 574.4,334.2 574.1,334 573.8,333.8 573.5,333.7 573.2,333.6 572.9,333.6 554,333.6 554.3,333.6 554,333.6 
			553.6,333.7 553.3,333.8 553,333.9 552.7,334.1 552.4,334.3 552.2,334.6 552.1,334.9 552,335.2 551.9,335.6 551.9,335.8 
			551.9,344.4 551.9,344.2 551.9,344.5 552,344.9 552.1,345.2 552.2,345.5 552.4,345.8 552.7,346 553,346.2 553.3,346.4 
			553.6,346.5 554,346.5 		"/>
		<text transform="matrix(1 0 0 1 555.4741 342.93)" class="st10 st11">62%</text>
		<polygon class="st9" points="269.3,334.1 288.1,334.1 288,334.1 288.4,334.1 288.7,334 289.1,333.9 289.4,333.7 289.6,333.5 
			289.9,333.2 290,332.9 290.2,332.6 290.3,332.3 290.3,331.9 290.3,331.9 290.3,323.3 290.3,323.3 290.3,323 290.2,322.6 
			290,322.3 289.9,322 289.6,321.8 289.4,321.5 289.1,321.4 288.7,321.3 288.4,321.2 288.1,321.2 269.3,321.2 269.5,321.2 
			269.2,321.2 268.8,321.2 268.5,321.3 268.2,321.5 267.9,321.7 267.7,321.9 267.5,322.2 267.3,322.5 267.2,322.8 267.1,323.2 
			267.1,323.3 267.1,331.9 267.1,331.8 267.1,332.1 267.2,332.4 267.3,332.8 267.5,333.1 267.7,333.4 267.9,333.6 268.2,333.8 
			268.5,334 268.8,334 269.2,334.1 		"/>
		<text transform="matrix(1 0 0 1 270.7042 330.49)" class="st10 st11">38%</text>
		<polygon class="st9" points="554,334.1 572.9,334.1 572.8,334.1 573.2,334.1 573.5,334 573.8,333.9 574.1,333.7 574.4,333.5 
			574.6,333.2 574.8,332.9 575,332.6 575,332.3 575.1,331.9 575.1,331.9 575.1,323.3 575.1,323.3 575,323 575,322.6 574.8,322.3 
			574.6,322 574.4,321.8 574.1,321.5 573.8,321.4 573.5,321.3 573.2,321.2 572.9,321.2 554,321.2 554.3,321.2 554,321.2 
			553.6,321.2 553.3,321.3 553,321.5 552.7,321.7 552.4,321.9 552.2,322.2 552.1,322.5 552,322.8 551.9,323.2 551.9,323.3 
			551.9,331.9 551.9,331.8 551.9,332.1 552,332.4 552.1,332.8 552.2,333.1 552.4,333.4 552.7,333.6 553,333.8 553.3,334 553.6,334 
			554,334.1 		"/>
		<text transform="matrix(1 0 0 1 555.4741 330.49)" class="st10 st11">62%</text>
		<polygon class="st9" points="275,321.6 293.8,321.6 293.8,321.6 294.1,321.6 294.4,321.6 294.8,321.4 295.1,321.3 295.3,321 
			295.6,320.8 295.8,320.5 295.9,320.2 296,319.8 296,319.5 296,319.5 296,310.9 296,310.9 296,310.5 295.9,310.2 295.8,309.9 
			295.6,309.6 295.3,309.3 295.1,309.1 294.8,308.9 294.4,308.8 294.1,308.8 293.8,308.7 275,308.7 275.2,308.8 274.9,308.7 
			274.5,308.8 274.2,308.9 273.9,309 273.6,309.2 273.4,309.5 273.1,309.7 273,310 272.9,310.4 272.8,310.7 272.8,310.9 
			272.8,319.5 272.8,319.3 272.8,319.7 272.9,320 273,320.3 273.1,320.6 273.4,320.9 273.6,321.2 273.9,321.4 274.2,321.5 
			274.5,321.6 274.9,321.6 		"/>
		<text transform="matrix(1 0 0 1 276.3941 318.05)" class="st10 st11">40%</text>
		<polygon class="st9" points="559.8,321.6 578.6,321.6 578.5,321.6 578.9,321.6 579.2,321.6 579.5,321.4 579.8,321.3 580.1,321 
			580.3,320.8 580.5,320.5 580.7,320.2 580.7,319.8 580.8,319.5 580.8,319.5 580.8,310.9 580.8,310.9 580.7,310.5 580.7,310.2 
			580.5,309.9 580.3,309.6 580.1,309.3 579.8,309.1 579.5,308.9 579.2,308.8 578.9,308.8 578.6,308.7 559.8,308.7 560,308.8 
			559.7,308.7 559.3,308.8 559,308.9 558.7,309 558.4,309.2 558.1,309.5 557.9,309.7 557.8,310 557.7,310.4 557.6,310.7 
			557.6,310.9 557.6,319.5 557.6,319.3 557.6,319.7 557.7,320 557.8,320.3 557.9,320.6 558.1,320.9 558.4,321.2 558.7,321.4 
			559,321.5 559.3,321.6 559.7,321.6 		"/>
		<text transform="matrix(1 0 0 1 561.1741 318.05)" class="st10 st11">60%</text>
		<polygon class="st9" points="275,309.2 293.8,309.2 293.8,309.2 294.1,309.2 294.4,309.1 294.8,309 295.1,308.8 295.3,308.6 
			295.6,308.3 295.8,308 295.9,307.7 296,307.4 296,307 296,307 296,298.5 296,298.5 296,298.1 295.9,297.8 295.8,297.5 
			295.6,297.1 295.3,296.9 295.1,296.7 294.8,296.5 294.4,296.4 294.1,296.3 293.8,296.3 275,296.3 275.2,296.3 274.9,296.3 
			274.5,296.3 274.2,296.4 273.9,296.6 273.6,296.8 273.4,297 273.1,297.3 273,297.6 272.9,297.9 272.8,298.3 272.8,298.5 
			272.8,307 272.8,306.9 272.8,307.2 272.9,307.6 273,307.9 273.1,308.2 273.4,308.5 273.6,308.7 273.9,308.9 274.2,309.1 
			274.5,309.2 274.9,309.2 		"/>
		<text transform="matrix(1 0 0 1 276.3941 305.61)" class="st10 st11">40%</text>
		<polygon class="st9" points="559.8,309.2 578.6,309.2 578.5,309.2 578.9,309.2 579.2,309.1 579.5,309 579.8,308.8 580.1,308.6 
			580.3,308.3 580.5,308 580.7,307.7 580.7,307.4 580.8,307 580.8,307 580.8,298.5 580.8,298.5 580.7,298.1 580.7,297.8 
			580.5,297.5 580.3,297.1 580.1,296.9 579.8,296.7 579.5,296.5 579.2,296.4 578.9,296.3 578.6,296.3 559.8,296.3 560,296.3 
			559.7,296.3 559.3,296.3 559,296.4 558.7,296.6 558.4,296.8 558.1,297 557.9,297.3 557.8,297.6 557.7,297.9 557.6,298.3 
			557.6,298.5 557.6,307 557.6,306.9 557.6,307.2 557.7,307.6 557.8,307.9 557.9,308.2 558.1,308.5 558.4,308.7 558.7,308.9 
			559,309.1 559.3,309.2 559.7,309.2 		"/>
		<text transform="matrix(1 0 0 1 561.1741 305.61)" class="st10 st11">60%</text>
		<polygon class="st9" points="289.2,296.8 308.1,296.8 308,296.8 308.3,296.8 308.7,296.7 309,296.6 309.3,296.4 309.6,296.2 
			309.8,295.9 310,295.6 310.1,295.3 310.2,295 310.2,294.6 310.2,294.6 310.2,286 310.2,286 310.2,285.7 310.1,285.3 310,285 
			309.8,284.7 309.6,284.5 309.3,284.2 309,284.1 308.7,283.9 308.3,283.9 308.1,283.9 289.2,283.9 289.5,283.9 289.1,283.9 
			288.8,283.9 288.4,284 288.1,284.1 287.8,284.3 287.6,284.6 287.4,284.9 287.2,285.2 287.1,285.5 287,285.8 287,286 287,294.6 
			287,294.4 287,294.8 287.1,295.1 287.2,295.5 287.4,295.8 287.6,296 287.8,296.3 288.1,296.5 288.4,296.6 288.8,296.7 
			289.1,296.8 		"/>
		<text transform="matrix(1 0 0 1 290.6342 293.17)" class="st10 st11">45%</text>
		<polygon class="st9" points="574,296.8 592.8,296.8 592.8,296.8 593.1,296.8 593.5,296.7 593.8,296.6 594.1,296.4 594.3,296.2 
			594.6,295.9 594.8,295.6 594.9,295.3 595,295 595,294.6 595,294.6 595,286 595,286 595,285.7 594.9,285.3 594.8,285 594.6,284.7 
			594.3,284.5 594.1,284.2 593.8,284.1 593.5,283.9 593.1,283.9 592.8,283.9 574,283.9 574.2,283.9 573.9,283.9 573.5,283.9 
			573.2,284 572.9,284.1 572.6,284.3 572.4,284.6 572.2,284.9 572,285.2 571.9,285.5 571.8,285.8 571.8,286 571.8,294.6 
			571.8,294.4 571.8,294.8 571.9,295.1 572,295.5 572.2,295.8 572.4,296 572.6,296.3 572.9,296.5 573.2,296.6 573.5,296.7 
			573.9,296.8 		"/>
		<text transform="matrix(1 0 0 1 575.4141 293.17)" class="st10 st11">55%</text>
		<polygon class="st9" points="289.2,284.3 308.1,284.3 308,284.3 308.3,284.3 308.7,284.2 309,284.1 309.3,283.9 309.6,283.7 
			309.8,283.5 310,283.2 310.1,282.9 310.2,282.5 310.2,282.2 310.2,282.2 310.2,273.6 310.2,273.6 310.2,273.2 310.1,272.9 
			310,272.6 309.8,272.3 309.6,272 309.3,271.8 309,271.6 308.7,271.5 308.3,271.4 308.1,271.4 289.2,271.4 289.5,271.4 
			289.1,271.4 288.8,271.5 288.4,271.5 288.1,271.7 287.8,271.9 287.6,272.1 287.4,272.4 287.2,272.7 287.1,273 287,273.4 
			287,273.6 287,282.2 287,282 287,282.3 287.1,282.7 287.2,283 287.4,283.3 287.6,283.6 287.8,283.8 288.1,284 288.4,284.2 
			288.8,284.3 289.1,284.3 		"/>
		<text transform="matrix(1 0 0 1 290.6342 280.73)" class="st10 st11">45%</text>
		<polygon class="st9" points="574,284.3 592.8,284.3 592.8,284.3 593.1,284.3 593.5,284.2 593.8,284.1 594.1,283.9 594.3,283.7 
			594.6,283.5 594.8,283.2 594.9,282.9 595,282.5 595,282.2 595,282.2 595,273.6 595,273.6 595,273.2 594.9,272.9 594.8,272.6 
			594.6,272.3 594.3,272 594.1,271.8 593.8,271.6 593.5,271.5 593.1,271.4 592.8,271.4 574,271.4 574.2,271.4 573.9,271.4 
			573.5,271.5 573.2,271.5 572.9,271.7 572.6,271.9 572.4,272.1 572.2,272.4 572,272.7 571.9,273 571.8,273.4 571.8,273.6 
			571.8,282.2 571.8,282 571.8,282.3 571.9,282.7 572,283 572.2,283.3 572.4,283.6 572.6,283.8 572.9,284 573.2,284.2 573.5,284.3 
			573.9,284.3 		"/>
		<text transform="matrix(1 0 0 1 575.4141 280.73)" class="st10 st11">55%</text>
		<polygon class="st9" points="294.9,271.9 313.8,271.9 313.7,271.9 314,271.9 314.4,271.8 314.7,271.7 315,271.5 315.3,271.3 
			315.5,271 315.7,270.7 315.8,270.4 315.9,270.1 315.9,269.7 315.9,269.7 315.9,261.1 315.9,261.1 315.9,260.8 315.8,260.4 
			315.7,260.1 315.5,259.8 315.3,259.6 315,259.4 314.7,259.2 314.4,259 314,259 313.8,259 294.9,259 295.2,259 294.8,259 
			294.5,259 294.1,259.1 293.8,259.3 293.5,259.5 293.3,259.7 293.1,260 292.9,260.3 292.8,260.6 292.8,261 292.7,261.1 
			292.7,269.7 292.8,269.5 292.8,269.9 292.8,270.2 292.9,270.6 293.1,270.9 293.3,271.2 293.5,271.4 293.8,271.6 294.1,271.8 
			294.5,271.8 294.8,271.9 		"/>
		<text transform="matrix(1 0 0 1 296.3341 268.29)" class="st10 st11">47%</text>
		<polygon class="st9" points="579.7,271.9 598.5,271.9 598.5,271.9 598.8,271.9 599.1,271.8 599.5,271.7 599.8,271.5 600,271.3 
			600.3,271 600.5,270.7 600.6,270.4 600.7,270.1 600.7,269.7 600.7,269.7 600.7,261.1 600.7,261.1 600.7,260.8 600.6,260.4 
			600.5,260.1 600.3,259.8 600,259.6 599.8,259.4 599.5,259.2 599.1,259 598.8,259 598.5,259 579.7,259 579.9,259 579.6,259 
			579.2,259 578.9,259.1 578.6,259.3 578.3,259.5 578.1,259.7 577.8,260 577.7,260.3 577.6,260.6 577.5,261 577.5,261.1 
			577.5,269.7 577.5,269.5 577.5,269.9 577.6,270.2 577.7,270.6 577.8,270.9 578.1,271.2 578.3,271.4 578.6,271.6 578.9,271.8 
			579.2,271.8 579.6,271.9 		"/>
		<text transform="matrix(1 0 0 1 581.1041 268.29)" class="st10 st11">53%</text>
		<polygon class="st9" points="300.6,259.5 319.5,259.5 319.4,259.4 319.7,259.4 320.1,259.4 320.4,259.2 320.7,259.1 321,258.8 
			321.2,258.6 321.4,258.3 321.5,258 321.6,257.6 321.6,257.3 321.6,257.3 321.6,248.7 321.6,248.7 321.6,248.3 321.5,248 
			321.4,247.7 321.2,247.4 321,247.1 320.7,246.9 320.4,246.7 320.1,246.6 319.7,246.5 319.5,246.5 300.6,246.5 300.9,246.5 
			300.5,246.5 300.2,246.6 299.8,246.7 299.5,246.8 299.2,247 299,247.3 298.8,247.5 298.6,247.8 298.5,248.2 298.5,248.5 
			298.4,248.7 298.4,257.3 298.5,257.1 298.5,257.5 298.5,257.8 298.6,258.1 298.8,258.4 299,258.7 299.2,259 299.5,259.2 
			299.8,259.3 300.2,259.4 300.5,259.4 		"/>
		<text transform="matrix(1 0 0 1 302.0241 255.85)" class="st10 st11">49%</text>
		<polygon class="st9" points="585.4,259.5 604.2,259.5 604.2,259.4 604.5,259.4 604.8,259.4 605.2,259.2 605.5,259.1 605.7,258.8 
			606,258.6 606.2,258.3 606.3,258 606.4,257.6 606.4,257.3 606.4,257.3 606.4,248.7 606.4,248.7 606.4,248.3 606.3,248 
			606.2,247.7 606,247.4 605.7,247.1 605.5,246.9 605.2,246.7 604.8,246.6 604.5,246.5 604.2,246.5 585.4,246.5 585.6,246.5 
			585.3,246.5 584.9,246.6 584.6,246.7 584.3,246.8 584,247 583.8,247.3 583.5,247.5 583.4,247.8 583.3,248.2 583.2,248.5 
			583.2,248.7 583.2,257.3 583.2,257.1 583.2,257.5 583.3,257.8 583.4,258.1 583.5,258.4 583.8,258.7 584,259 584.3,259.2 
			584.6,259.3 584.9,259.4 585.3,259.4 		"/>
		<text transform="matrix(1 0 0 1 586.8041 255.85)" class="st10 st11">51%</text>
		<polygon class="st9" points="317.7,247 336.5,247 336.5,247 336.8,247 337.1,246.9 337.5,246.8 337.8,246.6 338,246.4 
			338.3,246.1 338.5,245.9 338.6,245.5 338.7,245.2 338.7,244.8 338.7,244.8 338.7,236.2 338.7,236.2 338.7,235.9 338.6,235.6 
			338.5,235.2 338.3,234.9 338,234.7 337.8,234.5 337.5,234.3 337.1,234.2 336.8,234.1 336.5,234.1 317.7,234.1 318,234.1 
			317.6,234.1 317.2,234.1 316.9,234.2 316.6,234.4 316.3,234.6 316.1,234.8 315.9,235.1 315.7,235.4 315.6,235.7 315.5,236.1 
			315.5,236.2 315.5,244.8 315.5,244.7 315.5,245 315.6,245.4 315.7,245.7 315.9,246 316.1,246.3 316.3,246.5 316.6,246.7 
			316.9,246.9 317.2,247 317.6,247 		"/>
		<text transform="matrix(1 0 0 1 319.1141 243.4)" class="st10 st11">55%</text>
		<polygon class="st9" points="602.5,247 621.3,247 621.2,247 621.6,247 621.9,246.9 622.2,246.8 622.5,246.6 622.8,246.4 
			623,246.1 623.2,245.9 623.4,245.5 623.5,245.2 623.5,244.8 623.5,244.8 623.5,236.2 623.5,236.2 623.5,235.9 623.4,235.6 
			623.2,235.2 623,234.9 622.8,234.7 622.5,234.5 622.2,234.3 621.9,234.2 621.6,234.1 621.3,234.1 602.5,234.1 602.7,234.1 
			602.4,234.1 602,234.1 601.7,234.2 601.4,234.4 601.1,234.6 600.8,234.8 600.6,235.1 600.5,235.4 600.4,235.7 600.3,236.1 
			600.3,236.2 600.3,244.8 600.3,244.7 600.3,245 600.4,245.4 600.5,245.7 600.6,246 600.8,246.3 601.1,246.5 601.4,246.7 
			601.7,246.9 602,247 602.4,247 		"/>
		<text transform="matrix(1 0 0 1 603.8842 243.4)" class="st10 st11">45%</text>
		<polygon class="st9" points="340.5,234.6 359.3,234.6 359.2,234.6 359.6,234.6 359.9,234.5 360.3,234.4 360.6,234.2 360.8,234 
			361.1,233.7 361.2,233.4 361.4,233.1 361.5,232.8 361.5,232.4 361.5,232.4 361.5,223.8 361.5,223.8 361.5,223.5 361.4,223.1 
			361.2,222.8 361.1,222.5 360.8,222.2 360.6,222 360.3,221.9 359.9,221.7 359.6,221.7 359.3,221.6 340.5,221.6 340.7,221.7 
			340.4,221.6 340,221.7 339.7,221.8 339.4,221.9 339.1,222.1 338.9,222.4 338.6,222.6 338.5,223 338.4,223.3 338.3,223.6 
			338.3,223.8 338.3,232.4 338.3,232.2 338.3,232.6 338.4,232.9 338.5,233.2 338.6,233.6 338.9,233.8 339.1,234.1 339.4,234.3 
			339.7,234.4 340,234.5 340.4,234.6 		"/>
		<text transform="matrix(1 0 0 1 341.8941 230.96)" class="st10 st11">63%</text>
		<polygon class="st9" points="625.2,234.6 644.1,234.6 644,234.6 644.4,234.6 644.7,234.5 645,234.4 645.3,234.2 645.6,234 
			645.8,233.7 646,233.4 646.2,233.1 646.2,232.8 646.3,232.4 646.3,232.4 646.3,223.8 646.3,223.8 646.2,223.5 646.2,223.1 
			646,222.8 645.8,222.5 645.6,222.2 645.3,222 645,221.9 644.7,221.7 644.4,221.7 644.1,221.6 625.2,221.6 625.5,221.7 
			625.2,221.6 624.8,221.7 624.5,221.8 624.2,221.9 623.9,222.1 623.6,222.4 623.4,222.6 623.3,223 623.2,223.3 623.1,223.6 
			623.1,223.8 623.1,232.4 623.1,232.2 623.1,232.6 623.2,232.9 623.3,233.2 623.4,233.6 623.6,233.8 623.9,234.1 624.2,234.3 
			624.5,234.4 624.8,234.5 625.2,234.6 		"/>
		<text transform="matrix(1 0 0 1 626.6741 230.96)" class="st10 st11">37%</text>
		<polygon class="st9" points="349,222.1 367.9,222.1 367.8,222.1 368.1,222.1 368.5,222 368.8,221.9 369.1,221.7 369.4,221.5 
			369.6,221.3 369.8,221 369.9,220.6 370,220.3 370,220 370,220 370,211.4 370,211.4 370,211 369.9,210.7 369.8,210.4 369.6,210.1 
			369.4,209.8 369.1,209.6 368.8,209.4 368.5,209.3 368.1,209.2 367.9,209.2 349,209.2 349.3,209.2 348.9,209.2 348.6,209.2 
			348.2,209.4 347.9,209.5 347.6,209.7 347.4,209.9 347.2,210.2 347,210.5 346.9,210.9 346.9,211.2 346.9,211.4 346.9,220 
			346.9,219.8 346.9,220.1 346.9,220.5 347,220.8 347.2,221.1 347.4,221.4 347.6,221.6 347.9,221.8 348.2,222 348.6,222.1 
			348.9,222.1 		"/>
		<text transform="matrix(1 0 0 1 350.4341 218.52)" class="st10 st11">66%</text>
		<polygon class="st9" points="633.8,222.1 652.7,222.1 652.6,222.1 652.9,222.1 653.2,222 653.6,221.9 653.9,221.7 654.2,221.5 
			654.4,221.3 654.6,221 654.7,220.6 654.8,220.3 654.8,220 654.8,220 654.8,211.4 654.8,211.4 654.8,211 654.7,210.7 654.6,210.4 
			654.4,210.1 654.2,209.8 653.9,209.6 653.6,209.4 653.2,209.3 652.9,209.2 652.7,209.2 633.8,209.2 634,209.2 633.7,209.2 
			633.3,209.2 633,209.4 632.7,209.5 632.4,209.7 632.2,209.9 632,210.2 631.8,210.5 631.7,210.9 631.6,211.2 631.6,211.4 
			631.6,220 631.6,219.8 631.6,220.1 631.7,220.5 631.8,220.8 632,221.1 632.2,221.4 632.4,221.6 632.7,221.8 633,222 633.3,222.1 
			633.7,222.1 		"/>
		<text transform="matrix(1 0 0 1 635.2141 218.52)" class="st10 st11">34%</text>
		<polygon class="st9" points="349,209.7 367.9,209.7 367.8,209.7 368.1,209.7 368.5,209.6 368.8,209.5 369.1,209.3 369.4,209.1 
			369.6,208.8 369.8,208.5 369.9,208.2 370,207.9 370,207.5 370,207.5 370,198.9 370,198.9 370,198.6 369.9,198.2 369.8,197.9 
			369.6,197.6 369.4,197.4 369.1,197.1 368.8,197 368.5,196.9 368.1,196.8 367.9,196.8 349,196.8 349.3,196.8 348.9,196.8 
			348.6,196.8 348.2,196.9 347.9,197.1 347.6,197.2 347.4,197.5 347.2,197.8 347,198.1 346.9,198.4 346.9,198.8 346.9,198.9 
			346.9,207.5 346.9,207.4 346.9,207.7 346.9,208 347,208.4 347.2,208.7 347.4,209 347.6,209.2 347.9,209.4 348.2,209.5 
			348.6,209.6 348.9,209.7 		"/>
		<text transform="matrix(1 0 0 1 350.4341 206.08)" class="st10 st11">66%</text>
		<polygon class="st9" points="633.8,209.7 652.7,209.7 652.6,209.7 652.9,209.7 653.2,209.6 653.6,209.5 653.9,209.3 654.2,209.1 
			654.4,208.8 654.6,208.5 654.7,208.2 654.8,207.9 654.8,207.5 654.8,207.5 654.8,198.9 654.8,198.9 654.8,198.6 654.7,198.2 
			654.6,197.9 654.4,197.6 654.2,197.4 653.9,197.1 653.6,197 653.2,196.9 652.9,196.8 652.7,196.8 633.8,196.8 634,196.8 
			633.7,196.8 633.3,196.8 633,196.9 632.7,197.1 632.4,197.2 632.2,197.5 632,197.8 631.8,198.1 631.7,198.4 631.6,198.8 
			631.6,198.9 631.6,207.5 631.6,207.4 631.6,207.7 631.7,208 631.8,208.4 632,208.7 632.2,209 632.4,209.2 632.7,209.4 633,209.5 
			633.3,209.6 633.7,209.7 		"/>
		<text transform="matrix(1 0 0 1 635.2141 206.08)" class="st10 st11">34%</text>
		<polygon class="st9" points="351.9,197.2 370.7,197.2 370.6,197.2 371,197.2 371.3,197.2 371.6,197 372,196.9 372.2,196.6 
			372.5,196.4 372.6,196.1 372.8,195.8 372.9,195.4 372.9,195.1 372.9,195.1 372.9,186.5 372.9,186.5 372.9,186.1 372.8,185.8 
			372.6,185.5 372.5,185.2 372.2,184.9 372,184.7 371.6,184.5 371.3,184.4 371,184.3 370.7,184.3 351.9,184.3 352.1,184.3 
			351.8,184.3 351.4,184.4 351.1,184.5 350.8,184.6 350.5,184.8 350.2,185.1 350,185.3 349.9,185.6 349.8,186 349.7,186.3 
			349.7,186.5 349.7,195.1 349.7,194.9 349.7,195.3 349.8,195.6 349.9,195.9 350,196.2 350.2,196.5 350.5,196.8 350.8,196.9 
			351.1,197.1 351.4,197.2 351.8,197.2 		"/>
		<text transform="matrix(1 0 0 1 353.2841 193.64)" class="st10 st11">67%</text>
		<polygon class="st9" points="636.6,197.2 655.5,197.2 655.4,197.2 655.8,197.2 656.1,197.2 656.4,197 656.7,196.9 657,196.6 
			657.2,196.4 657.4,196.1 657.5,195.8 657.6,195.4 657.7,195.1 657.7,195.1 657.7,186.5 657.7,186.5 657.6,186.1 657.5,185.8 
			657.4,185.5 657.2,185.2 657,184.9 656.7,184.7 656.4,184.5 656.1,184.4 655.8,184.3 655.5,184.3 636.6,184.3 636.9,184.3 
			636.5,184.3 636.2,184.4 635.9,184.5 635.5,184.6 635.3,184.8 635,185.1 634.8,185.3 634.7,185.6 634.5,186 634.5,186.3 
			634.5,186.5 634.5,195.1 634.5,194.9 634.5,195.3 634.5,195.6 634.7,195.9 634.8,196.2 635,196.5 635.3,196.8 635.5,196.9 
			635.9,197.1 636.2,197.2 636.5,197.2 		"/>
		<text transform="matrix(1 0 0 1 638.0641 193.64)" class="st10 st11">33%</text>
		<polygon class="st9" points="357.5,184.8 376.4,184.8 376.3,184.8 376.7,184.8 377,184.7 377.3,184.6 377.6,184.4 377.9,184.2 
			378.1,183.9 378.3,183.6 378.5,183.3 378.5,183 378.6,182.6 378.6,182.6 378.6,174.1 378.6,174.1 378.5,173.7 378.5,173.4 
			378.3,173 378.1,172.8 377.9,172.5 377.6,172.3 377.3,172.1 377,172 376.7,171.9 376.4,171.9 357.5,171.9 357.8,171.9 
			357.5,171.9 357.1,171.9 356.8,172 356.5,172.2 356.2,172.4 355.9,172.6 355.7,172.9 355.6,173.2 355.5,173.5 355.4,173.9 
			355.4,174.1 355.4,182.6 355.4,182.5 355.4,182.8 355.5,183.2 355.6,183.5 355.7,183.8 355.9,184.1 356.2,184.3 356.5,184.5 
			356.8,184.7 357.1,184.8 357.5,184.8 		"/>
		<text transform="matrix(1 0 0 1 358.9841 181.2)" class="st10 st11">69%</text>
		<polygon class="st9" points="642.3,184.8 661.2,184.8 661.1,184.8 661.5,184.8 661.8,184.7 662.1,184.6 662.4,184.4 662.7,184.2 
			662.9,183.9 663.1,183.6 663.2,183.3 663.3,183 663.3,182.6 663.3,182.6 663.3,174.1 663.3,174.1 663.3,173.7 663.2,173.4 
			663.1,173 662.9,172.8 662.7,172.5 662.4,172.3 662.1,172.1 661.8,172 661.5,171.9 661.2,171.9 642.3,171.9 642.6,171.9 
			642.2,171.9 641.9,171.9 641.6,172 641.2,172.2 641,172.4 640.7,172.6 640.5,172.9 640.3,173.2 640.2,173.5 640.2,173.9 
			640.2,174.1 640.2,182.6 640.2,182.5 640.2,182.8 640.2,183.2 640.3,183.5 640.5,183.8 640.7,184.1 641,184.3 641.2,184.5 
			641.6,184.7 641.9,184.8 642.2,184.8 		"/>
		<text transform="matrix(1 0 0 1 643.7542 181.2)" class="st10 st11">31%</text>
		<polygon class="st9" points="371.8,172.4 390.7,172.4 390.6,172.4 390.9,172.4 391.3,172.3 391.6,172.1 391.9,172 392.1,171.8 
			392.4,171.5 392.6,171.2 392.7,170.9 392.8,170.6 392.8,170.2 392.8,170.2 392.8,161.6 392.8,161.6 392.8,161.3 392.7,160.9 
			392.6,160.6 392.4,160.3 392.1,160.1 391.9,159.8 391.6,159.6 391.3,159.5 390.9,159.5 390.7,159.4 371.8,159.4 372,159.5 
			371.7,159.4 371.4,159.5 371,159.6 370.7,159.7 370.4,159.9 370.2,160.2 370,160.4 369.8,160.8 369.7,161.1 369.6,161.4 
			369.6,161.6 369.6,170.2 369.6,170 369.6,170.4 369.7,170.7 369.8,171.1 370,171.4 370.2,171.6 370.4,171.9 370.7,172.1 
			371,172.2 371.4,172.3 371.7,172.4 		"/>
		<text transform="matrix(1 0 0 1 373.2141 168.76)" class="st10 st11">74%</text>
		<polygon class="st9" points="656.6,172.4 675.4,172.4 675.3,172.4 675.7,172.4 676,172.3 676.4,172.1 676.7,172 676.9,171.8 
			677.2,171.5 677.3,171.2 677.5,170.9 677.6,170.6 677.6,170.2 677.6,170.2 677.6,161.6 677.6,161.6 677.6,161.3 677.5,160.9 
			677.3,160.6 677.2,160.3 676.9,160.1 676.7,159.8 676.4,159.6 676,159.5 675.7,159.5 675.4,159.4 656.6,159.4 656.8,159.5 
			656.5,159.4 656.1,159.5 655.8,159.6 655.5,159.7 655.2,159.9 655,160.2 654.7,160.4 654.6,160.8 654.5,161.1 654.4,161.4 
			654.4,161.6 654.4,170.2 654.4,170 654.4,170.4 654.5,170.7 654.6,171.1 654.7,171.4 655,171.6 655.2,171.9 655.5,172.1 
			655.8,172.2 656.1,172.3 656.5,172.4 		"/>
		<text transform="matrix(1 0 0 1 657.9941 168.76)" class="st10 st11">26%</text>
		<polygon class="st9" points="391.7,159.9 410.6,159.9 410.5,159.9 410.9,159.9 411.2,159.8 411.5,159.7 411.8,159.5 412.1,159.3 
			412.3,159.1 412.5,158.8 412.6,158.4 412.7,158.1 412.8,157.8 412.8,157.8 412.8,149.2 412.8,149.2 412.7,148.8 412.6,148.5 
			412.5,148.2 412.3,147.9 412.1,147.6 411.8,147.4 411.5,147.2 411.2,147.1 410.9,147 410.6,147 391.7,147 392,147 391.6,147 
			391.3,147.1 391,147.1 390.6,147.3 390.4,147.5 390.1,147.7 389.9,148 389.7,148.3 389.6,148.6 389.6,149 389.6,149.2 
			389.6,157.8 389.6,157.6 389.6,157.9 389.6,158.3 389.7,158.6 389.9,158.9 390.1,159.2 390.4,159.4 390.6,159.6 391,159.8 
			391.3,159.9 391.6,159.9 		"/>
		<text transform="matrix(1 0 0 1 393.1541 156.32)" class="st10 st11">81%</text>
		<polygon class="st9" points="676.5,159.9 695.4,159.9 695.3,159.9 695.6,159.9 696,159.8 696.3,159.7 696.6,159.5 696.9,159.3 
			697.1,159.1 697.3,158.8 697.4,158.4 697.5,158.1 697.5,157.8 697.5,157.8 697.5,149.2 697.5,149.2 697.5,148.8 697.4,148.5 
			697.3,148.2 697.1,147.9 696.9,147.6 696.6,147.4 696.3,147.2 696,147.1 695.6,147 695.4,147 676.5,147 676.8,147 676.4,147 
			676.1,147.1 675.7,147.1 675.4,147.3 675.1,147.5 674.9,147.7 674.7,148 674.5,148.3 674.4,148.6 674.3,149 674.3,149.2 
			674.3,157.8 674.3,157.6 674.3,157.9 674.4,158.3 674.5,158.6 674.7,158.9 674.9,159.2 675.1,159.4 675.4,159.6 675.7,159.8 
			676.1,159.9 676.4,159.9 		"/>
		<text transform="matrix(1 0 0 1 677.9341 156.32)" class="st10 st11">19%</text>
		<polygon class="st9" points="397.4,147.5 416.3,147.5 416.2,147.5 416.5,147.5 416.9,147.4 417.2,147.3 417.5,147.1 417.8,146.9 
			418,146.6 418.2,146.3 418.3,146 418.4,145.7 418.5,145.3 418.5,145.3 418.5,136.7 418.5,136.7 418.4,136.4 418.3,136 
			418.2,135.7 418,135.4 417.8,135.2 417.5,134.9 417.2,134.8 416.9,134.6 416.5,134.6 416.3,134.6 397.4,134.6 397.7,134.6 
			397.3,134.6 397,134.6 396.7,134.7 396.3,134.9 396.1,135.1 395.8,135.3 395.6,135.6 395.4,135.9 395.3,136.2 395.3,136.6 
			395.3,136.7 395.3,145.3 395.3,145.1 395.3,145.5 395.3,145.8 395.4,146.2 395.6,146.5 395.8,146.8 396.1,147 396.3,147.2 
			396.7,147.3 397,147.4 397.3,147.5 		"/>
		<text transform="matrix(1 0 0 1 398.8441 143.88)" class="st10 st11">83%</text>
		<polygon class="st9" points="682.2,147.5 701.1,147.5 701,147.5 701.3,147.5 701.7,147.4 702,147.3 702.3,147.1 702.6,146.9 
			702.8,146.6 703,146.3 703.1,146 703.2,145.7 703.2,145.3 703.2,145.3 703.2,136.7 703.2,136.7 703.2,136.4 703.1,136 703,135.7 
			702.8,135.4 702.6,135.2 702.3,134.9 702,134.8 701.7,134.6 701.3,134.6 701.1,134.6 682.2,134.6 682.5,134.6 682.1,134.6 
			681.8,134.6 681.4,134.7 681.1,134.9 680.8,135.1 680.6,135.3 680.4,135.6 680.2,135.9 680.1,136.2 680,136.6 680,136.7 
			680,145.3 680,145.1 680,145.5 680.1,145.8 680.2,146.2 680.4,146.5 680.6,146.8 680.8,147 681.1,147.2 681.4,147.3 681.8,147.4 
			682.1,147.5 		"/>
		<text transform="matrix(1 0 0 1 683.6241 143.88)" class="st10 st11">17%</text>
		<polygon class="st9" points="403.1,135 422,135 421.9,135 422.2,135 422.6,135 422.9,134.8 423.2,134.7 423.5,134.4 423.7,134.2 
			423.9,133.9 424,133.6 424.1,133.2 424.1,132.9 424.1,132.9 424.1,124.3 424.1,124.3 424.1,123.9 424,123.6 423.9,123.3 
			423.7,123 423.5,122.7 423.2,122.5 422.9,122.3 422.6,122.2 422.2,122.1 422,122.1 403.1,122.1 403.4,122.1 403,122.1 
			402.7,122.2 402.4,122.3 402,122.4 401.8,122.6 401.5,122.8 401.3,123.1 401.1,123.4 401,123.8 401,124.1 401,124.3 401,132.9 
			401,132.7 401,133.1 401,133.4 401.1,133.7 401.3,134 401.5,134.3 401.8,134.6 402,134.8 402.4,134.9 402.7,135 403,135 		"/>
		<text transform="matrix(1 0 0 1 404.5441 131.44)" class="st10 st11">85%</text>
		<polygon class="st9" points="687.9,135 706.8,135 706.7,135 707,135 707.4,135 707.7,134.8 708,134.7 708.2,134.4 708.5,134.2 
			708.7,133.9 708.8,133.6 708.9,133.2 708.9,132.9 708.9,132.9 708.9,124.3 708.9,124.3 708.9,123.9 708.8,123.6 708.7,123.3 
			708.5,123 708.2,122.7 708,122.5 707.7,122.3 707.4,122.2 707,122.1 706.8,122.1 687.9,122.1 688.2,122.1 687.8,122.1 
			687.5,122.2 687.1,122.3 686.8,122.4 686.5,122.6 686.3,122.8 686.1,123.1 685.9,123.4 685.8,123.8 685.7,124.1 685.7,124.3 
			685.7,132.9 685.7,132.7 685.7,133.1 685.8,133.4 685.9,133.7 686.1,134 686.3,134.3 686.5,134.6 686.8,134.8 687.1,134.9 
			687.5,135 687.8,135 		"/>
		<text transform="matrix(1 0 0 1 689.3242 131.44)" class="st10 st11">15%</text>
		<polygon class="st9" points="314.8,122.6 333.7,122.6 333.6,122.6 334,122.6 334.3,122.5 334.6,122.4 334.9,122.2 335.2,122 
			335.4,121.7 335.6,121.4 335.8,121.1 335.8,120.8 335.9,120.4 335.9,120.4 335.9,111.8 335.9,111.8 335.8,111.5 335.8,111.2 
			335.6,110.8 335.4,110.6 335.2,110.3 334.9,110.1 334.6,109.9 334.3,109.8 334,109.7 333.7,109.7 314.8,109.7 315.1,109.7 
			314.8,109.7 314.4,109.7 314.1,109.8 313.8,110 313.5,110.2 313.2,110.4 313,110.7 312.9,111 312.7,111.3 312.7,111.7 
			312.7,111.8 312.7,120.4 312.7,120.3 312.7,120.6 312.7,121 312.9,121.3 313,121.6 313.2,121.9 313.5,122.1 313.8,122.3 
			314.1,122.5 314.4,122.6 314.8,122.6 		"/>
		<text transform="matrix(1 0 0 1 316.2641 119)" class="st10 st11">54%</text>
		<polygon class="st9" points="599.6,122.6 618.5,122.6 618.4,122.6 618.7,122.6 619.1,122.5 619.4,122.4 619.7,122.2 620,122 
			620.2,121.7 620.4,121.4 620.5,121.1 620.6,120.8 620.6,120.4 620.6,120.4 620.6,111.8 620.6,111.8 620.6,111.5 620.5,111.2 
			620.4,110.8 620.2,110.6 620,110.3 619.7,110.1 619.4,109.9 619.1,109.8 618.7,109.7 618.5,109.7 599.6,109.7 599.9,109.7 
			599.5,109.7 599.2,109.7 598.8,109.8 598.5,110 598.2,110.2 598,110.4 597.8,110.7 597.6,111 597.5,111.3 597.5,111.7 
			597.5,111.8 597.5,120.4 597.5,120.3 597.5,120.6 597.5,121 597.6,121.3 597.8,121.6 598,121.9 598.2,122.1 598.5,122.3 
			598.8,122.5 599.2,122.6 599.5,122.6 		"/>
		<text transform="matrix(1 0 0 1 601.0441 119)" class="st10 st11">46%</text>
	</g>
</g>
<g>
	<defs>
		<rect id="SVGID_00000097495364734192038120000015448958063260443827_" x="54" y="85.5" width="720" height="405"/>
	</defs>
	<clipPath id="SVGID_00000054946237666536988340000010712262073682389947_">
		<use xlink:href="#SVGID_00000097495364734192038120000015448958063260443827_"  style="overflow:visible;"/>
	</clipPath>
	<g style="clip-path:url(#SVGID_00000054946237666536988340000010712262073682389947_);">
		<rect x="86.2" y="460.1" class="st13" width="50.9" height="10.4"/>
		<text transform="matrix(1 0 0 1 86.1919 467.6201)" class="st14"><tspan x="0" y="0" class="st15 st10 st16">South</tspan><tspan x="23" y="0" class="st15 st10 st16"> </tspan><tspan x="25.5" y="0" class="st15 st10 st16">Sudan</tspan></text>
		<text transform="matrix(1 0 0 1 116.8761 455.18)" class="st15 st10 st16">WAR</text>
		<text transform="matrix(1 0 0 1 89.6296 442.74)" class="st15 st10 st16">Asia Region</text>
		<text transform="matrix(1 0 0 1 106.7484 430.3)" class="st15 st10 st16">Burundi</text>
		<text transform="matrix(1 0 0 1 118.0148 417.86)" class="st15 st10 st16">DRC</text>
		<rect x="96" y="397.9" class="st13" width="41.1" height="10.4"/>
		<text transform="matrix(1 0 0 1 95.9932 405.4199)" class="st15 st10 st16">Cameroon</text>
		<rect x="88" y="385.4" class="st13" width="49.1" height="10.4"/>
		<text transform="matrix(1 0 0 1 87.9536 392.9805)" class="st15 st10 st16">Cote d&apos;Ivoire</text>
		<text transform="matrix(1 0 0 1 109.6788 380.54)" class="st15 st10 st16">Angola</text>
		<rect x="86.7" y="360.5" class="st13" width="50.4" height="10.4"/>
		<text transform="matrix(1 0 0 1 86.6992 368.1001)" class="st15 st10 st16">Mozambique</text>
		<text transform="matrix(1 0 0 1 96.4874 355.66)" class="st15 st10 st16">Zimbabwe</text>
		<text transform="matrix(1 0 0 1 119.4757 343.22)" class="st15 st10 st16">Haiti</text>
		<rect x="105.8" y="323.2" class="st13" width="31.3" height="10.4"/>
		<text transform="matrix(1 0 0 1 105.7642 330.7798)" class="st15 st10 st16">Lesotho</text>
		<rect x="112.1" y="310.8" class="st13" width="25" height="10.4"/>
		<text transform="matrix(1 0 0 1 112.1279 318.3398)" class="st15 st10 st16">Kenya</text>
		<text transform="matrix(1 0 0 1 109.696 305.9)" class="st15 st10 st16">Malawi</text>
		<rect x="101.9" y="285.9" class="st13" width="35.2" height="10.4"/>
		<text transform="matrix(1 0 0 1 101.854 293.46)" class="st14"><tspan x="0" y="0" class="st15 st10 st16 st17">Tanza</tspan><tspan x="32.3" y="0" class="st15 st10 st16">-</tspan></text>
		<rect x="105" y="273.5" class="st13" width="32.1" height="10.4"/>
		<text transform="matrix(1 0 0 1 104.9565 281.02)" class="st14"><tspan x="0" y="0" class="st15 st10 st16 st18">Viet</tspan><tspan x="29.2" y="0" class="st15 st10 st16">-</tspan></text>
		<text transform="matrix(1 0 0 1 104.312 268.58)" class="st15 st10 st16">Eswatini</text>
		<text transform="matrix(1 0 0 1 107.7366 256.14)" class="st15 st10 st16">Zambia</text>
		<text transform="matrix(1 0 0 1 124.3698 243.7)" class="st15 st10 st16">DR</text>
		<rect x="59.5" y="223.7" class="st13" width="77.6" height="10.4"/>
		<text transform="matrix(1 0 0 1 59.4829 231.2598)" class="st14"><tspan x="0" y="0" class="st15 st10 st16">Wester</tspan><tspan x="27.9" y="0" class="st15 st10 st16"> </tspan><tspan x="30.2" y="0" class="st15 st10 st16">Hemisphere</tspan></text>
		<text transform="matrix(1 0 0 1 109.2019 218.82)" class="st15 st10 st16">Nigeria</text>
		<rect x="106.3" y="198.8" class="st13" width="30.8" height="10.4"/>
		<text transform="matrix(1 0 0 1 106.2544 206.3701)" class="st15 st10 st16">Uganda</text>
		<rect x="98.4" y="186.4" class="st13" width="38.7" height="10.4"/>
		<text transform="matrix(1 0 0 1 98.4341 193.9302)" class="st15 st10 st16">Botswana</text>
		<text transform="matrix(1 0 0 1 104.8019 181.49)" class="st15 st10 st16">Namibia</text>
		<text transform="matrix(1 0 0 1 106.757 169.05)" class="st15 st10 st16">Ukraine</text>
		<text transform="matrix(1 0 0 1 105.2788 156.61)" class="st15 st10 st16">Ethiopia</text>
		<rect x="89.6" y="136.6" class="st13" width="47.5" height="10.4"/>
		<text transform="matrix(1 0 0 1 89.6294 144.1699)" class="st14"><tspan x="0" y="0" class="st15 st10 st16">South</tspan><tspan x="23" y="0" class="st15 st10 st16"> </tspan><tspan x="25" y="0" class="st15 st10 st16">Africa</tspan></text>
		<text transform="matrix(1 0 0 1 104.7933 131.73)" class="st15 st10 st16">Rwanda</text>
		<rect x="118.5" y="111.7" class="st13" width="18.6" height="10.4"/>
		<text transform="matrix(1 0 0 1 118.4917 119.29)" class="st14"><tspan x="0" y="0" class="st15 st10 st16">Tot</tspan><tspan x="13.7" y="0" class="st15 st10 st16">a</tspan></text>
		<line class="st19" x1="139.3" y1="464.5" x2="142" y2="464.5"/>
		<line class="st19" x1="139.3" y1="452" x2="142" y2="452"/>
		<line class="st19" x1="139.3" y1="439.6" x2="142" y2="439.6"/>
		<line class="st19" x1="139.3" y1="427.1" x2="142" y2="427.1"/>
		<line class="st19" x1="139.3" y1="414.7" x2="142" y2="414.7"/>
		<line class="st19" x1="139.3" y1="402.3" x2="142" y2="402.3"/>
		<line class="st19" x1="139.3" y1="389.8" x2="142" y2="389.8"/>
		<line class="st19" x1="139.3" y1="377.4" x2="142" y2="377.4"/>
		<line class="st19" x1="139.3" y1="365" x2="142" y2="365"/>
		<line class="st19" x1="139.3" y1="352.5" x2="142" y2="352.5"/>
		<line class="st19" x1="139.3" y1="340.1" x2="142" y2="340.1"/>
		<line class="st19" x1="139.3" y1="327.6" x2="142" y2="327.6"/>
		<line class="st19" x1="139.3" y1="315.2" x2="142" y2="315.2"/>
		<line class="st19" x1="139.3" y1="302.8" x2="142" y2="302.8"/>
		<line class="st19" x1="139.3" y1="290.3" x2="142" y2="290.3"/>
		<line class="st19" x1="139.3" y1="277.9" x2="142" y2="277.9"/>
		<line class="st19" x1="139.3" y1="265.4" x2="142" y2="265.4"/>
		<line class="st19" x1="139.3" y1="253" x2="142" y2="253"/>
		<line class="st19" x1="139.3" y1="240.6" x2="142" y2="240.6"/>
		<line class="st19" x1="139.3" y1="228.1" x2="142" y2="228.1"/>
		<line class="st19" x1="139.3" y1="215.7" x2="142" y2="215.7"/>
		<line class="st19" x1="139.3" y1="203.2" x2="142" y2="203.2"/>
		<line class="st19" x1="139.3" y1="190.8" x2="142" y2="190.8"/>
		<line class="st19" x1="139.3" y1="178.3" x2="142" y2="178.3"/>
		<line class="st19" x1="139.3" y1="165.9" x2="142" y2="165.9"/>
		<line class="st19" x1="139.3" y1="153.5" x2="142" y2="153.5"/>
		<line class="st19" x1="139.3" y1="141" x2="142" y2="141"/>
		<line class="st19" x1="139.3" y1="128.6" x2="142" y2="128.6"/>
		<line class="st19" x1="139.3" y1="116.1" x2="142" y2="116.1"/>
		<line class="st19" x1="170.5" y1="474.7" x2="170.5" y2="471.9"/>
		<line class="st19" x1="312.9" y1="474.7" x2="312.9" y2="471.9"/>
		<line class="st19" x1="455.3" y1="474.7" x2="455.3" y2="471.9"/>
		<line class="st19" x1="597.7" y1="474.7" x2="597.7" y2="471.9"/>
		<line class="st19" x1="740" y1="474.7" x2="740" y2="471.9"/>
		<rect x="161.9" y="475.6" class="st13" width="17.1" height="10.4"/>
		<text transform="matrix(1 0 0 1 161.9263 483.1699)" class="st15 st10 st16">0.00</text>
		<rect x="304.3" y="475.6" class="st13" width="17.1" height="10.4"/>
		<text transform="matrix(1 0 0 1 304.3164 483.1699)" class="st15 st10 st16">0.25</text>
		<rect x="446.7" y="475.6" class="st13" width="17.1" height="10.4"/>
		<text transform="matrix(1 0 0 1 446.7065 483.1699)" class="st15 st10 st16">0.50</text>
		<rect x="589.1" y="475.6" class="st13" width="17.1" height="10.4"/>
		<text transform="matrix(1 0 0 1 589.0859 483.1699)" class="st15 st10 st16">0.75</text>
		<rect x="731.5" y="475.6" class="st13" width="17.1" height="10.4"/>
		<text transform="matrix(1 0 0 1 731.4766 483.1699)" class="st15 st10 st16">1.00</text>
		<text transform="matrix(1 0 0 1 142.01 100.43)" class="st10 st20">FY 21 Local vs. International Budget - All Agencies</text>
	</g>
</g>
<rect x="110.4" y="497.7" class="st13" width="654.4" height="36.4"/>
<text transform="matrix(1 0 0 1 110.356 519.3734)" class="st21 st22">too much clutter -&gt; show the data!</text>
<g>
	<path class="st23" d="M621.9,328.9c4.1-5.7,5.9-13.5,10.9-18.3c5.1-5,10.2-9.3,14-14.9c3.9-5.9,11.1-9.8,14.2-15.9
		c3.2-6.3,3.3-14.1,6.8-20c3.7-6.1,8.8-11.2,11.7-17.3c3-6.5,2.4-14.4,5.6-20.4c3.3-6.3,11.7-9.3,15.6-14.8c4.2-6,3.6-14.4,6.2-20.5
		c2.9-6.8,8.5-12.3,9.6-18.8c1.3-7.4,2-14.3,3.4-20.4c1.8-7.5-2.1-14.2-1.7-19.2c0.6-8.2,2.7-14.2-2.1-17.7
		c-4.6-3.4-11.6-2.8-19.7-1.8c-5.5,0.7-10.2,4.2-17.2,8.5c-5.4,3.3-10.7,6.6-15.6,12.8c-4.1,5.3-10.5,9-16.1,13.8
		c-5,4.3-8.4,11.7-14.6,15.6c-5.8,3.6-13.4,4.7-18.4,9.9c-4.7,4.8-10,9.3-15,14.4c-4.7,4.9-6.3,12.8-10.9,18.2
		c-4.5,5.1-9.2,10-13.6,15.6c-4.2,5.4-8.6,10.8-13,16.3c-4.2,5.4-9,10.2-12.3,16.5c-3.2,6.1-4.9,13.6-9,19.3
		c-4.1,5.7-11.5,8.7-16.1,13.9c-4.7,5.3-6.9,12.2-10.7,17.9c-3.9,5.9-9.1,10.9-13.3,16.3c-4.4,5.6-7.6,11.6-11.1,17.4
		c-3.7,6.1-9.4,10.7-13,16.6c-3.8,6.1-6.5,12.6-9.6,18.5c-3.4,6.4-5.6,13-6.9,19.8c-1.4,7.3-0.7,15.2-3.3,21.3
		c-2.9,6.8-5.4,12.8-7.2,18.9c-2.1,7.1-4.7,13.3-6.2,19.4c-1.8,7.4-1.2,13.7-1.9,18.8c-1.1,8.4-1.1,11.6,3.8,15.1
		c4.7,3.4,8.7,3.2,16.7,0.9c5.1-1.5,13.6,1.5,20.4-2.6c5.3-3.3,10.4-8.4,17.1-12.2c5.8-3.2,9.3-10.1,14.9-14.9
		c5-4.3,9-9.1,12.9-15.6c3.6-5.9,7.7-12.4,12.7-17.5c4.7-4.8,13.8-4.8,19.8-8.9c5.7-4,10-10.4,14.7-15.7c4.5-5.1,5.7-13,10.1-18.6
		c4.2-5.4,10.7-9.1,15.1-14.7c4.2-5.4,5.2-12.6,8.3-19.1C610.5,338.5,617.7,334.5,621.9,328.9z"/>
</g>
<g>
	<path class="st24" d="M154.3,330.1c0-0.7,0.3-2.3,0.4-4.3c0.3-13.3,3.6-26.4,9.2-39.6c5.1-12,12.6-23.3,21.1-34.8
		c7.8-10.6,15.6-22,25.7-31.9c9.5-9.4,20.2-18,31.1-26.7c10.6-8.4,21.5-17,32.9-24.5c11.5-7.6,23.4-14.6,35.2-21
		c12.4-6.7,25.4-11.3,37.5-16.6c13.3-5.9,25.7-12,37.8-15.8c14.8-4.7,28.3-8.5,39.9-9.7c18.7-1.9,32.2,2.1,37.5,11.1
		c4.6,7.7,3.8,20.7-1.6,37.6c-3.4,10.6-8.9,22.5-15.4,35.6c-5.4,10.7-11.3,22.3-18.4,34.2c-6.3,10.6-13.7,21.4-21.1,32.6
		c-7,10.5-13.2,22-21,32.7c-7.5,10.4-16.8,19.7-24.8,30c-8,10.2-15.5,20.8-23.8,30.7c-8.4,10-17.4,19.5-25.9,28.9
		c-8.9,9.8-17.4,19.7-26.3,28.6c-9.5,9.6-19.2,18.3-28.4,26.5c-10.4,9.2-21.1,16.6-30.8,23.6c-12,8.6-22.6,16.3-32.7,20.5
		c-15.3,6.4-27.9,7.1-37.1,0.9c-8.3-5.6-13.6-16.7-16.3-32.1c-1.9-10.6-3.3-23.1-3.1-37c0.2-11.5,1.4-24,2.6-37
		c1.1-11.9,3.4-24.1,5.2-36.7c1.8-12,2.4-24.5,4.6-36.8"/>
</g>
<g>
	<path class="st25" d="M302.5,467.3c15.5-10,24.3,0,26.2,4.8c2.9,7.4-15.8,26.3-22.8,22.3c-5-2.9-3.7-17.9-2.8-23"/>
</g>
<g>
	<path class="st25" d="M585.6,487c-2.5-18.2,10.2-22,15.4-21.7c8,0.5,17.2,25.4,10.6,30c-4.7,3.3-17.8-4.2-22-7.2"/>
</g>
<g>
	<path class="st25" d="M742.7,460.7c17.8,4.5,16.6,17.8,14.3,22.4c-3.5,7.2-30,6.3-31.8-1.5c-1.3-5.6,10.5-14.9,14.9-17.7"/>
</g>
</svg>
