<?xml version="1.0" encoding="utf-8"?>
<!-- Generator: Adobe Illustrator 28.2.0, SVG Export Plug-In . SVG Version: 6.00 Build 0)  -->
<svg version="1.1" id="Layer_1" xmlns="http://www.w3.org/2000/svg" xmlns:xlink="http://www.w3.org/1999/xlink" x="0px" y="0px"
	 viewBox="0 0 828 576" style="enable-background:new 0 0 828 576;" xml:space="preserve">
<style type="text/css">
	.st0{fill:#FFFFFF;}
	.st1{clip-path:url(#SVGID_00000143609243396304257670000007045178004497012628_);}
	.st2{fill:#FFFFFF;stroke:#FFFFFF;stroke-width:1.07;stroke-linecap:round;stroke-linejoin:round;stroke-miterlimit:10;}
	.st3{clip-path:url(#SVGID_00000091718728972364355830000008952988890563346862_);}
	.st4{fill:#EBEBEB;}
	.st5{fill:none;stroke:#FFFFFF;stroke-width:0.53;stroke-linejoin:round;stroke-miterlimit:10;}
	.st6{fill:none;stroke:#FFFFFF;stroke-width:1.07;stroke-linejoin:round;stroke-miterlimit:10;}
	.st7{fill:#BE3455;}
	.st8{fill:none;}
	.st9{font-family:'ArialMT';}
	.st10{font-size:7px;}
	.st11{clip-path:url(#SVGID_00000077322573751953086530000017774607815363105426_);}
	.st12{enable-background:new    ;}
	.st13{fill:#4D4D4D;}
	.st14{font-size:8.8px;}
	.st15{letter-spacing:1;}
	.st16{letter-spacing:3;}
	.st17{fill:none;stroke:#333333;stroke-width:1.07;stroke-linejoin:round;stroke-miterlimit:10;}
	.st18{fill:#F2F2F2;}
	.st19{font-size:13.2px;}
	.st20{fill:none;stroke:#231F20;stroke-width:2;stroke-miterlimit:10;}
	.st21{font-family:'PermanentMarkerPro';}
	.st22{font-size:36px;}
	.st23{font-size:18px;}
	.st24{fill:none;stroke:#231F20;stroke-width:1.9833;stroke-miterlimit:10;}
	.st25{fill:none;stroke:#231F20;stroke-width:1.7997;stroke-miterlimit:10;}
	.st26{font-size:17px;}
	.st27{fill:none;stroke:#231F20;stroke-width:3.5;stroke-miterlimit:10;}
	.st28{fill:#231F20;}
	.st29{fill:none;stroke:#231F20;stroke-width:2.0244;stroke-miterlimit:10;}
</style>
<rect x="54" y="85.5" class="st0" width="720" height="405"/>
<g>
	<defs>
		<rect id="SVGID_1_" x="54" y="85.5" width="720" height="405"/>
	</defs>
	<clipPath id="SVGID_00000000920936746930942610000009035796696634907558_">
		<use xlink:href="#SVGID_1_"  style="overflow:visible;"/>
	</clipPath>
	<g style="clip-path:url(#SVGID_00000000920936746930942610000009035796696634907558_);">
		<rect x="54" y="85.5" class="st2" width="720" height="405"/>
	</g>
</g>
<g>
	<defs>
		<rect id="SVGID_00000183218332245599433150000015183884537269852348_" x="142" y="108.7" width="563.7" height="363.3"/>
	</defs>
	<clipPath id="SVGID_00000165917852534700830950000008178132898899272383_">
		<use xlink:href="#SVGID_00000183218332245599433150000015183884537269852348_"  style="overflow:visible;"/>
	</clipPath>
	<g style="clip-path:url(#SVGID_00000165917852534700830950000008178132898899272383_);">
		<rect x="142" y="108.7" class="st4" width="563.7" height="363.3"/>
		<line class="st5" x1="227.9" y1="471.9" x2="227.9" y2="108.7"/>
		<line class="st5" x1="348.5" y1="471.9" x2="348.5" y2="108.7"/>
		<line class="st5" x1="469.1" y1="471.9" x2="469.1" y2="108.7"/>
		<line class="st5" x1="589.7" y1="471.9" x2="589.7" y2="108.7"/>
		<line class="st6" x1="142" y1="464.5" x2="705.8" y2="464.5"/>
		<line class="st6" x1="142" y1="452" x2="705.8" y2="452"/>
		<line class="st6" x1="142" y1="439.6" x2="705.8" y2="439.6"/>
		<line class="st6" x1="142" y1="427.1" x2="705.8" y2="427.1"/>
		<line class="st6" x1="142" y1="414.7" x2="705.8" y2="414.7"/>
		<line class="st6" x1="142" y1="402.3" x2="705.8" y2="402.3"/>
		<line class="st6" x1="142" y1="389.8" x2="705.8" y2="389.8"/>
		<line class="st6" x1="142" y1="377.4" x2="705.8" y2="377.4"/>
		<line class="st6" x1="142" y1="365" x2="705.8" y2="365"/>
		<line class="st6" x1="142" y1="352.5" x2="705.8" y2="352.5"/>
		<line class="st6" x1="142" y1="340.1" x2="705.8" y2="340.1"/>
		<line class="st6" x1="142" y1="327.6" x2="705.8" y2="327.6"/>
		<line class="st6" x1="142" y1="315.2" x2="705.8" y2="315.2"/>
		<line class="st6" x1="142" y1="302.8" x2="705.8" y2="302.8"/>
		<line class="st6" x1="142" y1="290.3" x2="705.8" y2="290.3"/>
		<line class="st6" x1="142" y1="277.9" x2="705.8" y2="277.9"/>
		<line class="st6" x1="142" y1="265.4" x2="705.8" y2="265.4"/>
		<line class="st6" x1="142" y1="253" x2="705.8" y2="253"/>
		<line class="st6" x1="142" y1="240.6" x2="705.8" y2="240.6"/>
		<line class="st6" x1="142" y1="228.1" x2="705.8" y2="228.1"/>
		<line class="st6" x1="142" y1="215.7" x2="705.8" y2="215.7"/>
		<line class="st6" x1="142" y1="203.2" x2="705.8" y2="203.2"/>
		<line class="st6" x1="142" y1="190.8" x2="705.8" y2="190.8"/>
		<line class="st6" x1="142" y1="178.3" x2="705.8" y2="178.3"/>
		<line class="st6" x1="142" y1="165.9" x2="705.8" y2="165.9"/>
		<line class="st6" x1="142" y1="153.5" x2="705.8" y2="153.5"/>
		<line class="st6" x1="142" y1="141" x2="705.8" y2="141"/>
		<line class="st6" x1="142" y1="128.6" x2="705.8" y2="128.6"/>
		<line class="st6" x1="142" y1="116.1" x2="705.8" y2="116.1"/>
		<line class="st6" x1="167.6" y1="471.9" x2="167.6" y2="108.7"/>
		<line class="st6" x1="288.2" y1="471.9" x2="288.2" y2="108.7"/>
		<line class="st6" x1="408.8" y1="471.9" x2="408.8" y2="108.7"/>
		<line class="st6" x1="529.4" y1="471.9" x2="529.4" y2="108.7"/>
		<line class="st6" x1="650" y1="471.9" x2="650" y2="108.7"/>
		<rect x="167.6" y="458.9" class="st7" width="6" height="11.2"/>
		<rect x="167.6" y="446.4" class="st7" width="36.2" height="11.2"/>
		<rect x="167.6" y="434" class="st7" width="72.3" height="11.2"/>
		<rect x="167.6" y="421.5" class="st7" width="84.4" height="11.2"/>
		<rect x="167.6" y="409.1" class="st7" width="120.6" height="11.2"/>
		<rect x="167.6" y="396.7" class="st7" width="162.8" height="11.2"/>
		<rect x="167.6" y="384.2" class="st7" width="168.8" height="11.2"/>
		<rect x="167.6" y="371.8" class="st7" width="174.8" height="11.2"/>
		<rect x="167.6" y="359.4" class="st7" width="199" height="11.2"/>
		<rect x="167.6" y="346.9" class="st7" width="205" height="11.2"/>
		<rect x="167.6" y="334.5" class="st7" width="229.1" height="11.2"/>
		<rect x="167.6" y="322" class="st7" width="229.1" height="11.2"/>
		<rect x="167.6" y="309.6" class="st7" width="241.2" height="11.2"/>
		<rect x="167.6" y="297.1" class="st7" width="241.2" height="11.2"/>
		<rect x="167.6" y="284.7" class="st7" width="271.3" height="11.2"/>
		<rect x="167.6" y="272.3" class="st7" width="271.3" height="11.2"/>
		<rect x="167.6" y="259.8" class="st7" width="283.4" height="11.2"/>
		<rect x="167.6" y="247.4" class="st7" width="295.4" height="11.2"/>
		<rect x="167.6" y="234.9" class="st7" width="331.6" height="11.2"/>
		<rect x="167.6" y="222.5" class="st7" width="379.8" height="11.2"/>
		<rect x="167.6" y="210.1" class="st7" width="397.9" height="11.2"/>
		<rect x="167.6" y="197.6" class="st7" width="397.9" height="11.2"/>
		<rect x="167.6" y="185.2" class="st7" width="404" height="11.2"/>
		<rect x="167.6" y="172.8" class="st7" width="416" height="11.2"/>
		<rect x="167.6" y="160.3" class="st7" width="446.2" height="11.2"/>
		<rect x="167.6" y="147.9" class="st7" width="488.4" height="11.2"/>
		<rect x="167.6" y="135.4" class="st7" width="500.4" height="11.2"/>
		<rect x="167.6" y="123" class="st7" width="512.5" height="11.2"/>
		<rect x="167.6" y="110.5" class="st7" width="325.6" height="11.2"/>
		<rect x="173.7" y="461" class="st8" width="10.1" height="8.3"/>
		<text transform="matrix(1 0 0 1 173.6699 466.9805)" class="st9 st10">1%</text>
		<rect x="203.8" y="448.5" class="st8" width="10.1" height="8.3"/>
		<text transform="matrix(1 0 0 1 203.8101 454.54)" class="st9 st10">6%</text>
		<text transform="matrix(1 0 0 1 239.99 442.1)" class="st9 st10">12%</text>
		<text transform="matrix(1 0 0 1 252.05 429.66)" class="st9 st10">14%</text>
		<text transform="matrix(1 0 0 1 288.22 417.22)" class="st9 st10">20%</text>
		<text transform="matrix(1 0 0 1 330.43 404.78)" class="st9 st10">27%</text>
		<text transform="matrix(1 0 0 1 336.46 392.34)" class="st9 st10">28%</text>
		<text transform="matrix(1 0 0 1 342.49 379.9)" class="st9 st10">29%</text>
		<text transform="matrix(1 0 0 1 366.6 367.46)" class="st9 st10">33%</text>
		<text transform="matrix(1 0 0 1 372.63 355.02)" class="st9 st10">34%</text>
		<text transform="matrix(1 0 0 1 396.75 342.58)" class="st9 st10">38%</text>
		<text transform="matrix(1 0 0 1 396.75 330.13)" class="st9 st10">38%</text>
		<text transform="matrix(1 0 0 1 408.81 317.69)" class="st9 st10">40%</text>
		<text transform="matrix(1 0 0 1 408.81 305.25)" class="st9 st10">40%</text>
		<text transform="matrix(1 0 0 1 438.95 292.81)" class="st9 st10">45%</text>
		<text transform="matrix(1 0 0 1 438.95 280.37)" class="st9 st10">45%</text>
		<text transform="matrix(1 0 0 1 451.01 267.93)" class="st9 st10">47%</text>
		<text transform="matrix(1 0 0 1 463.07 255.49)" class="st9 st10">49%</text>
		<text transform="matrix(1 0 0 1 499.25 243.05)" class="st9 st10">55%</text>
		<text transform="matrix(1 0 0 1 547.48 230.61)" class="st9 st10">63%</text>
		<text transform="matrix(1 0 0 1 565.57 218.17)" class="st9 st10">66%</text>
		<text transform="matrix(1 0 0 1 565.57 205.73)" class="st9 st10">66%</text>
		<text transform="matrix(1 0 0 1 571.6 193.29)" class="st9 st10">67%</text>
		<text transform="matrix(1 0 0 1 583.66 180.85)" class="st9 st10">69%</text>
		<text transform="matrix(1 0 0 1 613.8 168.41)" class="st9 st10">74%</text>
		<text transform="matrix(1 0 0 1 656.01 155.97)" class="st9 st10">81%</text>
		<text transform="matrix(1 0 0 1 668.07 143.53)" class="st9 st10">83%</text>
		<text transform="matrix(1 0 0 1 680.13 131.09)" class="st9 st10">85%</text>
		<text transform="matrix(1 0 0 1 493.22 118.65)" class="st9 st10">54%</text>
	</g>
</g>
<g>
	<defs>
		<rect id="SVGID_00000052798630564108942710000004851768066664157096_" x="54" y="85.5" width="720" height="405"/>
	</defs>
	<clipPath id="SVGID_00000073710996311211668790000000731439294109884582_">
		<use xlink:href="#SVGID_00000052798630564108942710000004851768066664157096_"  style="overflow:visible;"/>
	</clipPath>
	<g style="clip-path:url(#SVGID_00000073710996311211668790000000731439294109884582_);">
		<rect x="86.2" y="460.1" class="st8" width="50.9" height="10.4"/>
		<text transform="matrix(1 0 0 1 86.1919 467.6201)" class="st12"><tspan x="0" y="0" class="st13 st9 st14">South</tspan><tspan x="23" y="0" class="st13 st9 st14"> </tspan><tspan x="25.5" y="0" class="st13 st9 st14">Sudan</tspan></text>
		<text transform="matrix(1 0 0 1 116.8761 455.18)" class="st13 st9 st14">WAR</text>
		<text transform="matrix(1 0 0 1 89.6296 442.74)" class="st13 st9 st14">Asia Region</text>
		<text transform="matrix(1 0 0 1 106.7484 430.3)" class="st13 st9 st14">Burundi</text>
		<text transform="matrix(1 0 0 1 118.0148 417.86)" class="st13 st9 st14">DRC</text>
		<rect x="96" y="397.9" class="st8" width="41.1" height="10.4"/>
		<text transform="matrix(1 0 0 1 95.9932 405.4199)" class="st13 st9 st14">Cameroon</text>
		<rect x="88" y="385.4" class="st8" width="49.1" height="10.4"/>
		<text transform="matrix(1 0 0 1 87.9536 392.9805)" class="st13 st9 st14">Cote d&apos;Ivoire</text>
		<text transform="matrix(1 0 0 1 109.6788 380.54)" class="st13 st9 st14">Angola</text>
		<rect x="86.7" y="360.5" class="st8" width="50.4" height="10.4"/>
		<text transform="matrix(1 0 0 1 86.6992 368.1001)" class="st13 st9 st14">Mozambique</text>
		<text transform="matrix(1 0 0 1 96.4874 355.66)" class="st13 st9 st14">Zimbabwe</text>
		<text transform="matrix(1 0 0 1 119.4757 343.22)" class="st13 st9 st14">Haiti</text>
		<rect x="105.8" y="323.2" class="st8" width="31.3" height="10.4"/>
		<text transform="matrix(1 0 0 1 105.7642 330.7798)" class="st13 st9 st14">Lesotho</text>
		<rect x="112.1" y="310.8" class="st8" width="25" height="10.4"/>
		<text transform="matrix(1 0 0 1 112.1279 318.3398)" class="st13 st9 st14">Kenya</text>
		<text transform="matrix(1 0 0 1 109.696 305.9)" class="st13 st9 st14">Malawi</text>
		<rect x="101.9" y="285.9" class="st8" width="35.2" height="10.4"/>
		<text transform="matrix(1 0 0 1 101.854 293.46)" class="st12"><tspan x="0" y="0" class="st13 st9 st14 st15">Tanza</tspan><tspan x="32.3" y="0" class="st13 st9 st14">-</tspan></text>
		<rect x="105" y="273.5" class="st8" width="32.1" height="10.4"/>
		<text transform="matrix(1 0 0 1 104.9565 281.02)" class="st12"><tspan x="0" y="0" class="st13 st9 st14 st16">Viet</tspan><tspan x="29.2" y="0" class="st13 st9 st14">-</tspan></text>
		<text transform="matrix(1 0 0 1 104.312 268.58)" class="st13 st9 st14">Eswatini</text>
		<text transform="matrix(1 0 0 1 107.7366 256.14)" class="st13 st9 st14">Zambia</text>
		<text transform="matrix(1 0 0 1 124.3698 243.7)" class="st13 st9 st14">DR</text>
		<rect x="59.5" y="223.7" class="st8" width="77.6" height="10.4"/>
		<text transform="matrix(1 0 0 1 59.4829 231.2598)" class="st12"><tspan x="0" y="0" class="st13 st9 st14">Wester</tspan><tspan x="27.9" y="0" class="st13 st9 st14"> </tspan><tspan x="30.2" y="0" class="st13 st9 st14">Hemisphere</tspan></text>
		<text transform="matrix(1 0 0 1 109.2019 218.82)" class="st13 st9 st14">Nigeria</text>
		<rect x="106.3" y="198.8" class="st8" width="30.8" height="10.4"/>
		<text transform="matrix(1 0 0 1 106.2544 206.3701)" class="st13 st9 st14">Uganda</text>
		<rect x="98.4" y="186.4" class="st8" width="38.7" height="10.4"/>
		<text transform="matrix(1 0 0 1 98.4341 193.9302)" class="st13 st9 st14">Botswana</text>
		<text transform="matrix(1 0 0 1 104.8019 181.49)" class="st13 st9 st14">Namibia</text>
		<text transform="matrix(1 0 0 1 106.757 169.05)" class="st13 st9 st14">Ukraine</text>
		<text transform="matrix(1 0 0 1 105.2788 156.61)" class="st13 st9 st14">Ethiopia</text>
		<rect x="89.6" y="136.6" class="st8" width="47.5" height="10.4"/>
		<text transform="matrix(1 0 0 1 89.6294 144.1699)" class="st12"><tspan x="0" y="0" class="st13 st9 st14">South</tspan><tspan x="23" y="0" class="st13 st9 st14"> </tspan><tspan x="25" y="0" class="st13 st9 st14">Africa</tspan></text>
		<text transform="matrix(1 0 0 1 104.7933 131.73)" class="st13 st9 st14">Rwanda</text>
		<rect x="118.5" y="111.7" class="st8" width="18.6" height="10.4"/>
		<text transform="matrix(1 0 0 1 118.4917 119.29)" class="st12"><tspan x="0" y="0" class="st13 st9 st14">Tot</tspan><tspan x="13.7" y="0" class="st13 st9 st14">a</tspan></text>
		<line class="st17" x1="139.3" y1="464.5" x2="142" y2="464.5"/>
		<line class="st17" x1="139.3" y1="452" x2="142" y2="452"/>
		<line class="st17" x1="139.3" y1="439.6" x2="142" y2="439.6"/>
		<line class="st17" x1="139.3" y1="427.1" x2="142" y2="427.1"/>
		<line class="st17" x1="139.3" y1="414.7" x2="142" y2="414.7"/>
		<line class="st17" x1="139.3" y1="402.3" x2="142" y2="402.3"/>
		<line class="st17" x1="139.3" y1="389.8" x2="142" y2="389.8"/>
		<line class="st17" x1="139.3" y1="377.4" x2="142" y2="377.4"/>
		<line class="st17" x1="139.3" y1="365" x2="142" y2="365"/>
		<line class="st17" x1="139.3" y1="352.5" x2="142" y2="352.5"/>
		<line class="st17" x1="139.3" y1="340.1" x2="142" y2="340.1"/>
		<line class="st17" x1="139.3" y1="327.6" x2="142" y2="327.6"/>
		<line class="st17" x1="139.3" y1="315.2" x2="142" y2="315.2"/>
		<line class="st17" x1="139.3" y1="302.8" x2="142" y2="302.8"/>
		<line class="st17" x1="139.3" y1="290.3" x2="142" y2="290.3"/>
		<line class="st17" x1="139.3" y1="277.9" x2="142" y2="277.9"/>
		<line class="st17" x1="139.3" y1="265.4" x2="142" y2="265.4"/>
		<line class="st17" x1="139.3" y1="253" x2="142" y2="253"/>
		<line class="st17" x1="139.3" y1="240.6" x2="142" y2="240.6"/>
		<line class="st17" x1="139.3" y1="228.1" x2="142" y2="228.1"/>
		<line class="st17" x1="139.3" y1="215.7" x2="142" y2="215.7"/>
		<line class="st17" x1="139.3" y1="203.2" x2="142" y2="203.2"/>
		<line class="st17" x1="139.3" y1="190.8" x2="142" y2="190.8"/>
		<line class="st17" x1="139.3" y1="178.3" x2="142" y2="178.3"/>
		<line class="st17" x1="139.3" y1="165.9" x2="142" y2="165.9"/>
		<line class="st17" x1="139.3" y1="153.5" x2="142" y2="153.5"/>
		<line class="st17" x1="139.3" y1="141" x2="142" y2="141"/>
		<line class="st17" x1="139.3" y1="128.6" x2="142" y2="128.6"/>
		<line class="st17" x1="139.3" y1="116.1" x2="142" y2="116.1"/>
		<line class="st17" x1="167.6" y1="474.7" x2="167.6" y2="471.9"/>
		<line class="st17" x1="288.2" y1="474.7" x2="288.2" y2="471.9"/>
		<line class="st17" x1="408.8" y1="474.7" x2="408.8" y2="471.9"/>
		<line class="st17" x1="529.4" y1="474.7" x2="529.4" y2="471.9"/>
		<line class="st17" x1="650" y1="474.7" x2="650" y2="471.9"/>
		<rect x="161.5" y="475.6" class="st8" width="12.2" height="10.4"/>
		<text transform="matrix(1 0 0 1 161.5234 483.1699)" class="st13 st9 st14">0.0</text>
		<rect x="282.1" y="475.6" class="st8" width="12.2" height="10.4"/>
		<text transform="matrix(1 0 0 1 282.1035 483.1699)" class="st13 st9 st14">0.2</text>
		<rect x="402.7" y="475.6" class="st8" width="12.2" height="10.4"/>
		<text transform="matrix(1 0 0 1 402.6934 483.1699)" class="st13 st9 st14">0.4</text>
		<rect x="523.3" y="475.6" class="st8" width="12.2" height="10.4"/>
		<text transform="matrix(1 0 0 1 523.2734 483.1699)" class="st13 st9 st14">0.6</text>
		<rect x="643.9" y="475.6" class="st8" width="12.2" height="10.4"/>
		<text transform="matrix(1 0 0 1 643.8633 483.1699)" class="st13 st9 st14">0.8</text>
		<rect x="716.7" y="273.5" class="st0" width="51.8" height="33.7"/>
		<rect x="722.2" y="284.4" class="st18" width="17.3" height="17.3"/>
		<rect x="722.9" y="285.1" class="st7" width="15.9" height="15.9"/>
		<text transform="matrix(1 0 0 1 744.95 296.2)" class="st9 st14">local</text>
		<text transform="matrix(1 0 0 1 142.01 100.43)" class="st9 st19">FY 21 Local vs. International Budget - All Agencies</text>
	</g>
</g>
<g>
	<path class="st20" d="M591.1,98c0,17.3,0.9,17.3,0.9,34.5c0,17.3-0.3,17.3-0.3,34.5c0,17.3,3.5,17.3,3.5,34.5
		c0,17.3-5.1,17.3-5.1,34.5c0,17.3,0,17.3,0,34.5c0,17.3,3.5,17.3,3.5,34.5c0,17.3,2.3,17.3,2.3,34.5c0,17.3-4.2,17.3-4.2,34.5
		c0,17.3-0.2,17.3-0.2,34.5c0,17.3,0.2,17.3,0.2,34.6c0,17.3-2.3,17.3-2.3,34.6"/>
</g>
<rect x="411.3" y="331.5" class="st8" width="309" height="123.1"/>
<text transform="matrix(1 0 0 1 411.3284 353.2185)"><tspan x="0" y="0" class="st21 st22">Group (w/ </tspan><tspan x="0" y="43.2" class="st21 st22">color) &amp; let </tspan><tspan x="0" y="86.4" class="st21 st22">data breathe </tspan></text>
<rect x="177.9" y="61.6" class="st8" width="373.4" height="123.1"/>
<text transform="matrix(1 0 0 1 177.883 83.3176)" class="st21 st22">need negative space!!</text>
<text transform="matrix(1 0 0 1 577.5619 496.1161)" class="st21 st23">70%</text>
<text transform="matrix(1 0 0 1 616.4687 494.6757)" class="st21 st23">threshold</text>
<g>
	<path class="st24" d="M114.5,97.2c-3.8,3.5-9.5,6.2-10.8,10c-1,3,1.2,7.2,7.1,12.6"/>
</g>
<path class="st25" d="M98.2,126c-11.2,14-16.7,26.1-1.5,42.1"/>
<text transform="matrix(1 0 0 1 21.2255 144.2752)"><tspan x="0" y="0" class="st21 st26">above</tspan><tspan x="-17.3" y="20.4" class="st21 st26">threshold</tspan></text>
<text transform="matrix(1 0 0 1 614.1288 225.5143)"><tspan x="0" y="0" class="st21 st26">legend too</tspan><tspan x="0" y="20.4" class="st21 st26">far from data</tspan><tspan x="0" y="40.8" class="st21 st26">integrate into plot</tspan></text>
<text transform="matrix(1 0 0 1 20.2147 200.0692)" class="st21 st26">All Below</text>
<text transform="matrix(1 0 0 1 16.2307 90.9399)"><tspan x="0" y="0" class="st21 st26">overall </tspan><tspan x="-11.8" y="20.4" class="st21 st26">comparison</tspan></text>
<g>
	<g>
		<polyline class="st27" points="49.4,205.7 50.8,220 47.9,234.3 50.8,248.6 48.4,262.9 48.3,277.2 48.5,291.5 49.9,305.8 49,320.1 
			47.6,334.4 46.1,348.7 48.5,363 45.9,377.4 46.9,391.7 47.9,406 50.1,420.3 48.7,434.6 45.9,448.9 48.1,459.1 		"/>
		<g>
			<path class="st28" d="M26.6,439.3c0.7-0.7,1.8-0.7,2.5,0l18.8,19l9.3-25.1c0.3-0.9,1.3-1.4,2.2-1c0.9,0.3,1.4,1.3,1,2.2
				l-10.2,27.7c-0.2,0.6-0.7,1-1.3,1.1c-0.6,0.1-1.2-0.1-1.6-0.5l-20.8-21c-0.2-0.2-0.4-0.5-0.5-0.9C26,440.3,26.2,439.7,26.6,439.3
				z"/>
		</g>
	</g>
</g>
<g>
	<g>
		<path class="st29" d="M673.8,268.4c0.4,3.5,1,7.7,3.6,10.7c2.2,2.6,5.5,5.1,8.9,7.1c3,1.7,7.1,2,10.8,3.2c3.4,1.1,7.2-0.3,11,0.3
			c2.8,0.4,5.6,2.6,8.5,3.4"/>
		<g>
			<polygon class="st28" points="707.7,298.3 706.8,296.5 716,292.4 711.3,283.6 713,282.7 718.8,293.4 			"/>
		</g>
	</g>
</g>
</svg>
