<?xml version="1.0" encoding="utf-8"?>
<!-- Generator: Adobe Illustrator 28.2.0, SVG Export Plug-In . SVG Version: 6.00 Build 0)  -->
<svg version="1.1" id="Layer_1" xmlns="http://www.w3.org/2000/svg" xmlns:xlink="http://www.w3.org/1999/xlink" x="0px" y="0px"
	 viewBox="0 0 828 576" style="enable-background:new 0 0 828 576;" xml:space="preserve">
<style type="text/css">
	.st0{fill:#FFFFFF;}
	.st1{clip-path:url(#SVGID_00000051383686444797003500000009740870715829748665_);}
	.st2{fill:#FFFFFF;stroke:#FFFFFF;stroke-width:1.07;stroke-linecap:round;stroke-linejoin:round;stroke-miterlimit:10;}
	.st3{clip-path:url(#SVGID_00000072980005944892868590000004553207619363771268_);}
	.st4{fill:#EBEBEB;}
	.st5{fill:none;stroke:#FFFFFF;stroke-width:0.53;stroke-linejoin:round;stroke-miterlimit:10;}
	.st6{fill:none;stroke:#FFFFFF;stroke-width:1.07;stroke-linejoin:round;stroke-miterlimit:10;}
	.st7{fill:none;stroke:#E6E7E8;stroke-width:4.27;stroke-linejoin:round;stroke-miterlimit:10;stroke-opacity:0.75;}
	.st8{fill:#7F2339;}
	.st9{font-family:'ArialMT';}
	.st10{font-size:7px;}
	.st11{clip-path:url(#SVGID_00000060725090355249778380000001492652810900936605_);}
	.st12{fill:#BE3455;}
	.st13{clip-path:url(#SVGID_00000074404827977649954730000011444118064222248860_);}
	.st14{fill:#D38388;}
	.st15{fill:none;}
	.st16{clip-path:url(#SVGID_00000047022385580500121400000018372797318580454327_);}
	.st17{fill:#D9D9D9;}
	.st18{clip-path:url(#SVGID_00000037668070323565173360000017535146864329568423_);}
	.st19{fill:#1A1A1A;}
	.st20{font-size:8.8px;}
	.st21{clip-path:url(#SVGID_00000169556073116085948790000012237365995982101684_);}
	.st22{clip-path:url(#SVGID_00000170251096995038410630000015493066880713176727_);}
	.st23{fill:none;stroke:#333333;stroke-width:1.07;stroke-linejoin:round;stroke-miterlimit:10;}
	.st24{fill:#4D4D4D;}
	.st25{enable-background:new    ;}
	.st26{letter-spacing:1;}
	.st27{letter-spacing:3;}
	.st28{font-size:13.2px;}
	.st29{fill:none;stroke:#231F20;stroke-width:2;stroke-miterlimit:10;}
	.st30{font-family:'PermanentMarkerPro';}
	.st31{font-size:36px;}
</style>
<rect x="54" y="85.5" class="st0" width="720" height="405"/>
<g>
	<defs>
		<rect id="SVGID_1_" x="54" y="85.5" width="720" height="405"/>
	</defs>
	<clipPath id="SVGID_00000156585171824857889010000002517639687421240454_">
		<use xlink:href="#SVGID_1_"  style="overflow:visible;"/>
	</clipPath>
	<g style="clip-path:url(#SVGID_00000156585171824857889010000002517639687421240454_);">
		<rect x="54" y="85.5" class="st2" width="720" height="405"/>
	</g>
</g>
<g>
	<defs>
		<rect id="SVGID_00000155126771650704233860000007223314883957486756_" x="142" y="108.7" width="609.6" height="14.3"/>
	</defs>
	<clipPath id="SVGID_00000167395122896918954350000011448573360461451920_">
		<use xlink:href="#SVGID_00000155126771650704233860000007223314883957486756_"  style="overflow:visible;"/>
	</clipPath>
	<g style="clip-path:url(#SVGID_00000167395122896918954350000011448573360461451920_);">
		<rect x="142" y="108.7" class="st4" width="609.6" height="14.3"/>
		<line class="st5" x1="245.3" y1="123" x2="245.3" y2="108.7"/>
		<line class="st5" x1="396.4" y1="123" x2="396.4" y2="108.7"/>
		<line class="st5" x1="547.6" y1="123" x2="547.6" y2="108.7"/>
		<line class="st5" x1="698.7" y1="123" x2="698.7" y2="108.7"/>
		<line class="st6" x1="142" y1="115.8" x2="751.6" y2="115.8"/>
		<line class="st6" x1="169.7" y1="123" x2="169.7" y2="108.7"/>
		<line class="st6" x1="320.9" y1="123" x2="320.9" y2="108.7"/>
		<line class="st6" x1="472" y1="123" x2="472" y2="108.7"/>
		<line class="st6" x1="623.1" y1="123" x2="623.1" y2="108.7"/>
		<line class="st7" x1="522.4" y1="123" x2="522.4" y2="108.7"/>
		<rect x="169.7" y="110.5" class="st8" width="272" height="10.7"/>
		<text transform="matrix(1 0 0 1 441.77 118.32)" class="st9 st10">54%</text>
	</g>
</g>
<g>
	<defs>
		<rect id="SVGID_00000069373927194501243900000010739184291125675446_" x="54" y="85.5" width="720" height="405"/>
	</defs>
	<clipPath id="SVGID_00000132046038645804593310000012246363936054993333_">
		<use xlink:href="#SVGID_00000069373927194501243900000010739184291125675446_"  style="overflow:visible;"/>
	</clipPath>
</g>
<g>
	<defs>
		<rect id="SVGID_00000163785000969523390920000007283739621649434016_" x="142" y="128.4" width="609.6" height="50"/>
	</defs>
	<clipPath id="SVGID_00000138544529030318701510000017981306708280219525_">
		<use xlink:href="#SVGID_00000163785000969523390920000007283739621649434016_"  style="overflow:visible;"/>
	</clipPath>
	<g style="clip-path:url(#SVGID_00000138544529030318701510000017981306708280219525_);">
		<rect x="142" y="128.4" class="st4" width="609.6" height="50"/>
		<line class="st5" x1="245.3" y1="178.4" x2="245.3" y2="128.4"/>
		<line class="st5" x1="396.4" y1="178.4" x2="396.4" y2="128.4"/>
		<line class="st5" x1="547.6" y1="178.4" x2="547.6" y2="128.4"/>
		<line class="st5" x1="698.7" y1="178.4" x2="698.7" y2="128.4"/>
		<line class="st6" x1="142" y1="171.3" x2="751.6" y2="171.3"/>
		<line class="st6" x1="142" y1="159.4" x2="751.6" y2="159.4"/>
		<line class="st6" x1="142" y1="147.5" x2="751.6" y2="147.5"/>
		<line class="st6" x1="142" y1="135.6" x2="751.6" y2="135.6"/>
		<line class="st6" x1="169.7" y1="178.4" x2="169.7" y2="128.4"/>
		<line class="st6" x1="320.9" y1="178.4" x2="320.9" y2="128.4"/>
		<line class="st6" x1="472" y1="178.4" x2="472" y2="128.4"/>
		<line class="st6" x1="623.1" y1="178.4" x2="623.1" y2="128.4"/>
		<line class="st7" x1="522.4" y1="178.4" x2="522.4" y2="128.4"/>
		<rect x="169.7" y="165.9" class="st12" width="372.8" height="10.7"/>
		<rect x="169.7" y="154" class="st12" width="408.1" height="10.7"/>
		<rect x="169.7" y="142.1" class="st12" width="418.1" height="10.7"/>
		<rect x="169.7" y="130.2" class="st12" width="428.2" height="10.7"/>
		<text transform="matrix(1 0 0 1 542.53 173.79)" class="st9 st10">74%</text>
		<text transform="matrix(1 0 0 1 577.79 161.89)" class="st9 st10">81%</text>
		<text transform="matrix(1 0 0 1 587.87 149.99)" class="st9 st10">83%</text>
		<text transform="matrix(1 0 0 1 597.95 138.09)" class="st9 st10">85%</text>
	</g>
</g>
<g>
	<defs>
		<rect id="SVGID_00000101811024068369846020000000872298099606059705_" x="54" y="85.5" width="720" height="405"/>
	</defs>
	<clipPath id="SVGID_00000092418765655237081960000010721793472956276617_">
		<use xlink:href="#SVGID_00000101811024068369846020000000872298099606059705_"  style="overflow:visible;"/>
	</clipPath>
</g>
<g>
	<defs>
		<rect id="SVGID_00000018945010890631729290000013842727425215307650_" x="142" y="183.9" width="609.6" height="288"/>
	</defs>
	<clipPath id="SVGID_00000072261229641088042880000016309362552902609292_">
		<use xlink:href="#SVGID_00000018945010890631729290000013842727425215307650_"  style="overflow:visible;"/>
	</clipPath>
	<g style="clip-path:url(#SVGID_00000072261229641088042880000016309362552902609292_);">
		<rect x="142" y="183.9" class="st4" width="609.6" height="288"/>
		<line class="st5" x1="245.3" y1="471.9" x2="245.3" y2="183.9"/>
		<line class="st5" x1="396.4" y1="471.9" x2="396.4" y2="183.9"/>
		<line class="st5" x1="547.6" y1="471.9" x2="547.6" y2="183.9"/>
		<line class="st5" x1="698.7" y1="471.9" x2="698.7" y2="183.9"/>
		<line class="st6" x1="142" y1="464.8" x2="751.6" y2="464.8"/>
		<line class="st6" x1="142" y1="452.9" x2="751.6" y2="452.9"/>
		<line class="st6" x1="142" y1="441" x2="751.6" y2="441"/>
		<line class="st6" x1="142" y1="429.1" x2="751.6" y2="429.1"/>
		<line class="st6" x1="142" y1="417.2" x2="751.6" y2="417.2"/>
		<line class="st6" x1="142" y1="405.3" x2="751.6" y2="405.3"/>
		<line class="st6" x1="142" y1="393.4" x2="751.6" y2="393.4"/>
		<line class="st6" x1="142" y1="381.5" x2="751.6" y2="381.5"/>
		<line class="st6" x1="142" y1="369.6" x2="751.6" y2="369.6"/>
		<line class="st6" x1="142" y1="357.7" x2="751.6" y2="357.7"/>
		<line class="st6" x1="142" y1="345.8" x2="751.6" y2="345.8"/>
		<line class="st6" x1="142" y1="333.9" x2="751.6" y2="333.9"/>
		<line class="st6" x1="142" y1="322" x2="751.6" y2="322"/>
		<line class="st6" x1="142" y1="310.1" x2="751.6" y2="310.1"/>
		<line class="st6" x1="142" y1="298.2" x2="751.6" y2="298.2"/>
		<line class="st6" x1="142" y1="286.3" x2="751.6" y2="286.3"/>
		<line class="st6" x1="142" y1="274.4" x2="751.6" y2="274.4"/>
		<line class="st6" x1="142" y1="262.5" x2="751.6" y2="262.5"/>
		<line class="st6" x1="142" y1="250.6" x2="751.6" y2="250.6"/>
		<line class="st6" x1="142" y1="238.7" x2="751.6" y2="238.7"/>
		<line class="st6" x1="142" y1="226.8" x2="751.6" y2="226.8"/>
		<line class="st6" x1="142" y1="214.9" x2="751.6" y2="214.9"/>
		<line class="st6" x1="142" y1="202.9" x2="751.6" y2="202.9"/>
		<line class="st6" x1="142" y1="191.1" x2="751.6" y2="191.1"/>
		<line class="st6" x1="169.7" y1="471.9" x2="169.7" y2="183.9"/>
		<line class="st6" x1="320.9" y1="471.9" x2="320.9" y2="183.9"/>
		<line class="st6" x1="472" y1="471.9" x2="472" y2="183.9"/>
		<line class="st6" x1="623.1" y1="471.9" x2="623.1" y2="183.9"/>
		<line class="st7" x1="522.4" y1="471.9" x2="522.4" y2="183.9"/>
		<rect x="169.7" y="459.4" class="st14" width="5" height="10.7"/>
		<rect x="169.7" y="447.5" class="st14" width="30.2" height="10.7"/>
		<rect x="169.7" y="435.6" class="st14" width="60.5" height="10.7"/>
		<rect x="169.7" y="423.7" class="st14" width="70.5" height="10.7"/>
		<rect x="169.7" y="411.8" class="st14" width="100.8" height="10.7"/>
		<rect x="169.7" y="399.9" class="st14" width="136" height="10.7"/>
		<rect x="169.7" y="388" class="st14" width="141.1" height="10.7"/>
		<rect x="169.7" y="376.1" class="st14" width="146.1" height="10.7"/>
		<rect x="169.7" y="364.2" class="st14" width="166.2" height="10.7"/>
		<rect x="169.7" y="352.3" class="st14" width="171.3" height="10.7"/>
		<rect x="169.7" y="340.4" class="st14" width="191.4" height="10.7"/>
		<rect x="169.7" y="328.5" class="st14" width="191.4" height="10.7"/>
		<rect x="169.7" y="316.6" class="st14" width="201.5" height="10.7"/>
		<rect x="169.7" y="304.7" class="st14" width="201.5" height="10.7"/>
		<rect x="169.7" y="292.8" class="st14" width="226.7" height="10.7"/>
		<rect x="169.7" y="280.9" class="st14" width="226.7" height="10.7"/>
		<rect x="169.7" y="269" class="st14" width="236.8" height="10.7"/>
		<rect x="169.7" y="257.1" class="st14" width="246.9" height="10.7"/>
		<rect x="169.7" y="245.2" class="st14" width="277.1" height="10.7"/>
		<rect x="169.7" y="233.3" class="st14" width="317.4" height="10.7"/>
		<rect x="169.7" y="221.4" class="st14" width="332.5" height="10.7"/>
		<rect x="169.7" y="209.5" class="st14" width="332.5" height="10.7"/>
		<rect x="169.7" y="197.6" class="st14" width="337.5" height="10.7"/>
		<rect x="169.7" y="185.7" class="st14" width="347.6" height="10.7"/>
		<rect x="174.8" y="461.3" class="st15" width="10.1" height="8.3"/>
		<text transform="matrix(1 0 0 1 174.7598 467.2998)" class="st9 st10">1%</text>
		<rect x="199.9" y="449.4" class="st15" width="10.1" height="8.3"/>
		<text transform="matrix(1 0 0 1 199.9502 455.4004)" class="st9 st10">6%</text>
		<text transform="matrix(1 0 0 1 230.18 443.5)" class="st9 st10">12%</text>
		<text transform="matrix(1 0 0 1 240.25 431.6)" class="st9 st10">14%</text>
		<text transform="matrix(1 0 0 1 270.48 419.69)" class="st9 st10">20%</text>
		<text transform="matrix(1 0 0 1 305.75 407.79)" class="st9 st10">27%</text>
		<text transform="matrix(1 0 0 1 310.78 395.89)" class="st9 st10">28%</text>
		<text transform="matrix(1 0 0 1 315.82 383.99)" class="st9 st10">29%</text>
		<text transform="matrix(1 0 0 1 335.97 372.09)" class="st9 st10">33%</text>
		<text transform="matrix(1 0 0 1 341.01 360.18)" class="st9 st10">34%</text>
		<text transform="matrix(1 0 0 1 361.16 348.28)" class="st9 st10">38%</text>
		<text transform="matrix(1 0 0 1 361.16 336.38)" class="st9 st10">38%</text>
		<text transform="matrix(1 0 0 1 371.24 324.48)" class="st9 st10">40%</text>
		<text transform="matrix(1 0 0 1 371.24 312.58)" class="st9 st10">40%</text>
		<text transform="matrix(1 0 0 1 396.43 300.67)" class="st9 st10">45%</text>
		<text transform="matrix(1 0 0 1 396.43 288.77)" class="st9 st10">45%</text>
		<text transform="matrix(1 0 0 1 406.5 276.87)" class="st9 st10">47%</text>
		<text transform="matrix(1 0 0 1 416.58 264.97)" class="st9 st10">49%</text>
		<text transform="matrix(1 0 0 1 446.81 253.07)" class="st9 st10">55%</text>
		<text transform="matrix(1 0 0 1 487.11 241.16)" class="st9 st10">63%</text>
		<text transform="matrix(1 0 0 1 502.23 229.26)" class="st9 st10">66%</text>
		<text transform="matrix(1 0 0 1 502.23 217.36)" class="st9 st10">66%</text>
		<text transform="matrix(1 0 0 1 507.26 205.46)" class="st9 st10">67%</text>
		<text transform="matrix(1 0 0 1 517.34 193.55)" class="st9 st10">69%</text>
	</g>
</g>
<g>
	<defs>
		<rect id="SVGID_00000013164279119811929250000002461034196715629731_" x="54" y="85.5" width="720" height="405"/>
	</defs>
	<clipPath id="SVGID_00000082346705863166669000000012241890969996289954_">
		<use xlink:href="#SVGID_00000013164279119811929250000002461034196715629731_"  style="overflow:visible;"/>
	</clipPath>
</g>
<g>
	<defs>
		<rect id="SVGID_00000090978484532581420040000013937299809790081447_" x="751.6" y="108.7" width="16.9" height="14.3"/>
	</defs>
	<clipPath id="SVGID_00000098904678780494792280000012491167374212655542_">
		<use xlink:href="#SVGID_00000090978484532581420040000013937299809790081447_"  style="overflow:visible;"/>
	</clipPath>
	<g style="clip-path:url(#SVGID_00000098904678780494792280000012491167374212655542_);">
		<rect x="751.6" y="108.7" class="st17" width="16.9" height="14.3"/>
	</g>
</g>
<g>
	<defs>
		<rect id="SVGID_00000167373181995106305250000014074297051844801158_" x="54" y="85.5" width="720" height="405"/>
	</defs>
	<clipPath id="SVGID_00000073709188490584881530000002267652928054140807_">
		<use xlink:href="#SVGID_00000167373181995106305250000014074297051844801158_"  style="overflow:visible;"/>
	</clipPath>
</g>
<g>
	<defs>
		<rect id="SVGID_00000160904679853338157430000006157452868600127153_" x="751.6" y="128.4" width="16.9" height="50"/>
	</defs>
	<clipPath id="SVGID_00000048469232227687341790000000190480694052922540_">
		<use xlink:href="#SVGID_00000160904679853338157430000006157452868600127153_"  style="overflow:visible;"/>
	</clipPath>
	<g style="clip-path:url(#SVGID_00000048469232227687341790000000190480694052922540_);">
		<rect x="751.6" y="128.4" class="st17" width="16.9" height="50"/>
		<rect x="754.1" y="140.8" class="st15" width="10.4" height="25.2"/>
		<text transform="matrix(6.123234e-17 1 -1 6.123234e-17 756.9141 140.8315)" class="st19 st9 st20">&gt; 70%</text>
	</g>
</g>
<g>
	<defs>
		<rect id="SVGID_00000162317883493947926500000011866589197614752424_" x="54" y="85.5" width="720" height="405"/>
	</defs>
	<clipPath id="SVGID_00000116948304816728027360000009669446485056155299_">
		<use xlink:href="#SVGID_00000162317883493947926500000011866589197614752424_"  style="overflow:visible;"/>
	</clipPath>
</g>
<g>
	<defs>
		<rect id="SVGID_00000176760795564375715500000014063456495731176357_" x="751.6" y="183.9" width="16.9" height="288"/>
	</defs>
	<clipPath id="SVGID_00000074399694279722937960000015056773140767670205_">
		<use xlink:href="#SVGID_00000176760795564375715500000014063456495731176357_"  style="overflow:visible;"/>
	</clipPath>
	<g style="clip-path:url(#SVGID_00000074399694279722937960000015056773140767670205_);">
		<rect x="751.6" y="183.9" class="st17" width="16.9" height="288"/>
		<rect x="754.1" y="315.3" class="st15" width="10.4" height="25.2"/>
		<text transform="matrix(6.123234e-17 1 -1 6.123234e-17 756.9141 315.3218)" class="st19 st9 st20">&lt; 70%</text>
	</g>
</g>
<g>
	<defs>
		<rect id="SVGID_00000040560765453895459920000006661775856770246048_" x="54" y="85.5" width="720" height="405"/>
	</defs>
	<clipPath id="SVGID_00000119115142871236612130000014521825462791652231_">
		<use xlink:href="#SVGID_00000040560765453895459920000006661775856770246048_"  style="overflow:visible;"/>
	</clipPath>
	<g style="clip-path:url(#SVGID_00000119115142871236612130000014521825462791652231_);">
		<line class="st23" x1="169.7" y1="474.7" x2="169.7" y2="471.9"/>
		<line class="st23" x1="320.9" y1="474.7" x2="320.9" y2="471.9"/>
		<line class="st23" x1="472" y1="474.7" x2="472" y2="471.9"/>
		<line class="st23" x1="623.1" y1="474.7" x2="623.1" y2="471.9"/>
		<rect x="163.6" y="475.6" class="st15" width="12.2" height="10.4"/>
		<text transform="matrix(1 0 0 1 163.6035 483.1699)" class="st24 st9 st20">0.0</text>
		<rect x="314.7" y="475.6" class="st15" width="12.2" height="10.4"/>
		<text transform="matrix(1 0 0 1 314.7432 483.1699)" class="st24 st9 st20">0.3</text>
		<rect x="465.9" y="475.6" class="st15" width="12.2" height="10.4"/>
		<text transform="matrix(1 0 0 1 465.8838 483.1699)" class="st24 st9 st20">0.6</text>
		<rect x="617" y="475.6" class="st15" width="12.2" height="10.4"/>
		<text transform="matrix(1 0 0 1 617.0234 483.1699)" class="st24 st9 st20">0.9</text>
		<rect x="118.5" y="111.4" class="st15" width="18.6" height="10.4"/>
		<text transform="matrix(1 0 0 1 118.4917 118.9702)" class="st25"><tspan x="0" y="0" class="st24 st9 st20">Tot</tspan><tspan x="13.7" y="0" class="st24 st9 st20">a</tspan></text>
		<line class="st23" x1="139.3" y1="115.8" x2="142" y2="115.8"/>
		<text transform="matrix(1 0 0 1 106.757 174.44)" class="st24 st9 st20">Ukraine</text>
		<text transform="matrix(1 0 0 1 105.2788 162.53)" class="st24 st9 st20">Ethiopia</text>
		<rect x="89.6" y="143.1" class="st15" width="47.5" height="10.4"/>
		<text transform="matrix(1 0 0 1 89.6294 150.6299)" class="st25"><tspan x="0" y="0" class="st24 st9 st20">South</tspan><tspan x="23" y="0" class="st24 st9 st20"> </tspan><tspan x="25" y="0" class="st24 st9 st20">Africa</tspan></text>
		<text transform="matrix(1 0 0 1 104.7933 138.73)" class="st24 st9 st20">Rwanda</text>
		<line class="st23" x1="139.3" y1="171.3" x2="142" y2="171.3"/>
		<line class="st23" x1="139.3" y1="159.4" x2="142" y2="159.4"/>
		<line class="st23" x1="139.3" y1="147.5" x2="142" y2="147.5"/>
		<line class="st23" x1="139.3" y1="135.6" x2="142" y2="135.6"/>
		<rect x="86.2" y="460.4" class="st15" width="50.9" height="10.4"/>
		<text transform="matrix(1 0 0 1 86.1919 467.9502)" class="st25"><tspan x="0" y="0" class="st24 st9 st20">South</tspan><tspan x="23" y="0" class="st24 st9 st20"> </tspan><tspan x="25.5" y="0" class="st24 st9 st20">Sudan</tspan></text>
		<text transform="matrix(1 0 0 1 116.8761 456.05)" class="st24 st9 st20">WAR</text>
		<text transform="matrix(1 0 0 1 89.6296 444.14)" class="st24 st9 st20">Asia Region</text>
		<text transform="matrix(1 0 0 1 106.7484 432.24)" class="st24 st9 st20">Burundi</text>
		<text transform="matrix(1 0 0 1 118.0148 420.34)" class="st24 st9 st20">DRC</text>
		<rect x="96" y="400.9" class="st15" width="41.1" height="10.4"/>
		<text transform="matrix(1 0 0 1 95.9932 408.4404)" class="st24 st9 st20">Cameroon</text>
		<rect x="88" y="389" class="st15" width="49.1" height="10.4"/>
		<text transform="matrix(1 0 0 1 87.9536 396.5293)" class="st24 st9 st20">Cote d&apos;Ivoire</text>
		<text transform="matrix(1 0 0 1 109.6788 384.63)" class="st24 st9 st20">Angola</text>
		<rect x="86.7" y="365.2" class="st15" width="50.4" height="10.4"/>
		<text transform="matrix(1 0 0 1 86.6992 372.73)" class="st24 st9 st20">Mozambique</text>
		<text transform="matrix(1 0 0 1 96.4874 360.83)" class="st24 st9 st20">Zimbabwe</text>
		<text transform="matrix(1 0 0 1 119.4757 348.93)" class="st24 st9 st20">Haiti</text>
		<rect x="105.8" y="329.5" class="st15" width="31.3" height="10.4"/>
		<text transform="matrix(1 0 0 1 105.7642 337.02)" class="st24 st9 st20">Lesotho</text>
		<rect x="112.1" y="317.6" class="st15" width="25" height="10.4"/>
		<text transform="matrix(1 0 0 1 112.1279 325.1201)" class="st24 st9 st20">Kenya</text>
		<text transform="matrix(1 0 0 1 109.696 313.22)" class="st24 st9 st20">Malawi</text>
		<rect x="101.9" y="293.8" class="st15" width="35.2" height="10.4"/>
		<text transform="matrix(1 0 0 1 101.854 301.3198)" class="st25"><tspan x="0" y="0" class="st24 st9 st20 st26">Tanza</tspan><tspan x="32.3" y="0" class="st24 st9 st20">-</tspan></text>
		<rect x="105" y="281.9" class="st15" width="32.1" height="10.4"/>
		<text transform="matrix(1 0 0 1 104.9565 289.4199)" class="st25"><tspan x="0" y="0" class="st24 st9 st20 st27">Viet</tspan><tspan x="29.2" y="0" class="st24 st9 st20">-</tspan></text>
		<text transform="matrix(1 0 0 1 104.312 277.51)" class="st24 st9 st20">Eswatini</text>
		<text transform="matrix(1 0 0 1 107.7366 265.61)" class="st24 st9 st20">Zambia</text>
		<text transform="matrix(1 0 0 1 124.3698 253.71)" class="st24 st9 st20">DR</text>
		<rect x="59.5" y="234.3" class="st15" width="77.6" height="10.4"/>
		<text transform="matrix(1 0 0 1 59.4829 241.8101)" class="st25"><tspan x="0" y="0" class="st24 st9 st20">Wester</tspan><tspan x="27.9" y="0" class="st24 st9 st20"> </tspan><tspan x="30.2" y="0" class="st24 st9 st20">Hemisphere</tspan></text>
		<text transform="matrix(1 0 0 1 109.2019 229.91)" class="st24 st9 st20">Nigeria</text>
		<rect x="106.3" y="210.4" class="st15" width="30.8" height="10.4"/>
		<text transform="matrix(1 0 0 1 106.2544 218)" class="st24 st9 st20">Uganda</text>
		<rect x="98.4" y="198.5" class="st15" width="38.7" height="10.4"/>
		<text transform="matrix(1 0 0 1 98.4341 206.1001)" class="st24 st9 st20">Botswana</text>
		<text transform="matrix(1 0 0 1 104.8019 194.2)" class="st24 st9 st20">Namibia</text>
		<line class="st23" x1="139.3" y1="464.8" x2="142" y2="464.8"/>
		<line class="st23" x1="139.3" y1="452.9" x2="142" y2="452.9"/>
		<line class="st23" x1="139.3" y1="441" x2="142" y2="441"/>
		<line class="st23" x1="139.3" y1="429.1" x2="142" y2="429.1"/>
		<line class="st23" x1="139.3" y1="417.2" x2="142" y2="417.2"/>
		<line class="st23" x1="139.3" y1="405.3" x2="142" y2="405.3"/>
		<line class="st23" x1="139.3" y1="393.4" x2="142" y2="393.4"/>
		<line class="st23" x1="139.3" y1="381.5" x2="142" y2="381.5"/>
		<line class="st23" x1="139.3" y1="369.6" x2="142" y2="369.6"/>
		<line class="st23" x1="139.3" y1="357.7" x2="142" y2="357.7"/>
		<line class="st23" x1="139.3" y1="345.8" x2="142" y2="345.8"/>
		<line class="st23" x1="139.3" y1="333.9" x2="142" y2="333.9"/>
		<line class="st23" x1="139.3" y1="322" x2="142" y2="322"/>
		<line class="st23" x1="139.3" y1="310.1" x2="142" y2="310.1"/>
		<line class="st23" x1="139.3" y1="298.2" x2="142" y2="298.2"/>
		<line class="st23" x1="139.3" y1="286.3" x2="142" y2="286.3"/>
		<line class="st23" x1="139.3" y1="274.4" x2="142" y2="274.4"/>
		<line class="st23" x1="139.3" y1="262.5" x2="142" y2="262.5"/>
		<line class="st23" x1="139.3" y1="250.6" x2="142" y2="250.6"/>
		<line class="st23" x1="139.3" y1="238.7" x2="142" y2="238.7"/>
		<line class="st23" x1="139.3" y1="226.8" x2="142" y2="226.8"/>
		<line class="st23" x1="139.3" y1="214.9" x2="142" y2="214.9"/>
		<line class="st23" x1="139.3" y1="202.9" x2="142" y2="202.9"/>
		<line class="st23" x1="139.3" y1="191.1" x2="142" y2="191.1"/>
		<text transform="matrix(1 0 0 1 142.01 100.43)" class="st9 st28">FY 21 Local vs. International Budget - All Agencies</text>
	</g>
</g>
<g>
	<path class="st29" d="M750.4,95.6c12.6,10,21.1,27.3,26.2,45.9s10,38.3,11.2,58.1c1.2,19.7-2.8,39.8-2.3,59.5
		c0.7,24.2,1.4,48.4,0.4,72.6c-1.1,27.1-1.3,54.1-4.6,80.8c-2.3,19-2.6,38.2-4.9,57.2c-0.2,1.3-4,2.1-4.6,3.3
		c-0.5,1.1-1.3,1.5-2.2,2.1c-9.4,7-21.9,0.8-25.9-12.8c-1.5-5.3,0.3-11,0.1-16.7c-0.7-20-2.2-40.1-2.8-60.2
		c-0.5-20.1,0.8-40.1,0.7-60.2c-0.1-20.1-2.6-40.2-2-60.2c0.6-20.1-0.4-40.3,1.1-60.3c1.5-20.1,1.6-40.4,4.2-60.2
		c2.6-20,9.6-39.3,13.5-58.9"/>
</g>
<path class="st29" d="M204,474.7c13.7-0.8,27.2-2.7,40.8-4c14.4-1.3,28.9-2,43.4-2.6c30.1-1.3,60.2-2.6,90.4-3.9
	c79.7-3.4,159.8-6.8,239.4-2c6.8,0.4,13.8,0.9,19.6,3.5s9.9,7.6,7.6,12.2c-1.9,3.9-7.6,6.1-13,7.5c-18.9,5.1-39.6,5.6-59.8,6
	c-82.6,1.6-165.1,3.3-247.7,4.9c-44.8,0.9-89.8,1.8-134.2-2.7c-8.9-0.9-18.1-2.1-25.6-5.5c-4.7-2.1-8.6-5.2-10.7-8.9
	c-0.6-1.2-2.3-4-1.2-5.2c1.5-1.6,5.6-0.4,7.8-0.2C175.1,475.3,189.6,475.6,204,474.7z"/>
<rect x="364.2" y="382.1" class="st15" width="383.8" height="123.1"/>
<text transform="matrix(1 0 0 1 364.1818 403.8142)"><tspan x="0" y="0" class="st30 st31">reduce more clutter! </tspan><tspan x="0" y="43.2" class="st30 st31">format ticks or drop </tspan></text>
<text transform="matrix(1 0 0 1 622.5721 193.5497)"><tspan x="0" y="0" class="st30 st31">drop </tspan><tspan x="0" y="43.2" class="st30 st31">shaded </tspan><tspan x="0" y="86.4" class="st30 st31">area</tspan></text>
</svg>
